%TF.GenerationSoftware,KiCad,Pcbnew,10.0.3*%
%TF.CreationDate,2026-06-10T12:44:38+02:00*%
%TF.ProjectId,SPW_PCB_2,5350575f-5043-4425-9f32-2e6b69636164,rev?*%
%TF.SameCoordinates,Original*%
%TF.FileFunction,Legend,Top*%
%TF.FilePolarity,Positive*%
%FSLAX46Y46*%
G04 Gerber Fmt 4.6, Leading zero omitted, Abs format (unit mm)*
G04 Created by KiCad (PCBNEW 10.0.3) date 2026-06-10 12:44:38*
%MOMM*%
%LPD*%
G01*
G04 APERTURE LIST*
%ADD10C,0.150000*%
%ADD11C,0.120000*%
%ADD12C,0.100000*%
G04 APERTURE END LIST*
D10*
X93059580Y-66042857D02*
X93107200Y-66090476D01*
X93107200Y-66090476D02*
X93154819Y-66233333D01*
X93154819Y-66233333D02*
X93154819Y-66328571D01*
X93154819Y-66328571D02*
X93107200Y-66471428D01*
X93107200Y-66471428D02*
X93011961Y-66566666D01*
X93011961Y-66566666D02*
X92916723Y-66614285D01*
X92916723Y-66614285D02*
X92726247Y-66661904D01*
X92726247Y-66661904D02*
X92583390Y-66661904D01*
X92583390Y-66661904D02*
X92392914Y-66614285D01*
X92392914Y-66614285D02*
X92297676Y-66566666D01*
X92297676Y-66566666D02*
X92202438Y-66471428D01*
X92202438Y-66471428D02*
X92154819Y-66328571D01*
X92154819Y-66328571D02*
X92154819Y-66233333D01*
X92154819Y-66233333D02*
X92202438Y-66090476D01*
X92202438Y-66090476D02*
X92250057Y-66042857D01*
X93154819Y-65090476D02*
X93154819Y-65661904D01*
X93154819Y-65376190D02*
X92154819Y-65376190D01*
X92154819Y-65376190D02*
X92297676Y-65471428D01*
X92297676Y-65471428D02*
X92392914Y-65566666D01*
X92392914Y-65566666D02*
X92440533Y-65661904D01*
X92154819Y-64757142D02*
X92154819Y-64138095D01*
X92154819Y-64138095D02*
X92535771Y-64471428D01*
X92535771Y-64471428D02*
X92535771Y-64328571D01*
X92535771Y-64328571D02*
X92583390Y-64233333D01*
X92583390Y-64233333D02*
X92631009Y-64185714D01*
X92631009Y-64185714D02*
X92726247Y-64138095D01*
X92726247Y-64138095D02*
X92964342Y-64138095D01*
X92964342Y-64138095D02*
X93059580Y-64185714D01*
X93059580Y-64185714D02*
X93107200Y-64233333D01*
X93107200Y-64233333D02*
X93154819Y-64328571D01*
X93154819Y-64328571D02*
X93154819Y-64614285D01*
X93154819Y-64614285D02*
X93107200Y-64709523D01*
X93107200Y-64709523D02*
X93059580Y-64757142D01*
X91679580Y-74242857D02*
X91727200Y-74290476D01*
X91727200Y-74290476D02*
X91774819Y-74433333D01*
X91774819Y-74433333D02*
X91774819Y-74528571D01*
X91774819Y-74528571D02*
X91727200Y-74671428D01*
X91727200Y-74671428D02*
X91631961Y-74766666D01*
X91631961Y-74766666D02*
X91536723Y-74814285D01*
X91536723Y-74814285D02*
X91346247Y-74861904D01*
X91346247Y-74861904D02*
X91203390Y-74861904D01*
X91203390Y-74861904D02*
X91012914Y-74814285D01*
X91012914Y-74814285D02*
X90917676Y-74766666D01*
X90917676Y-74766666D02*
X90822438Y-74671428D01*
X90822438Y-74671428D02*
X90774819Y-74528571D01*
X90774819Y-74528571D02*
X90774819Y-74433333D01*
X90774819Y-74433333D02*
X90822438Y-74290476D01*
X90822438Y-74290476D02*
X90870057Y-74242857D01*
X91774819Y-73290476D02*
X91774819Y-73861904D01*
X91774819Y-73576190D02*
X90774819Y-73576190D01*
X90774819Y-73576190D02*
X90917676Y-73671428D01*
X90917676Y-73671428D02*
X91012914Y-73766666D01*
X91012914Y-73766666D02*
X91060533Y-73861904D01*
X90870057Y-72909523D02*
X90822438Y-72861904D01*
X90822438Y-72861904D02*
X90774819Y-72766666D01*
X90774819Y-72766666D02*
X90774819Y-72528571D01*
X90774819Y-72528571D02*
X90822438Y-72433333D01*
X90822438Y-72433333D02*
X90870057Y-72385714D01*
X90870057Y-72385714D02*
X90965295Y-72338095D01*
X90965295Y-72338095D02*
X91060533Y-72338095D01*
X91060533Y-72338095D02*
X91203390Y-72385714D01*
X91203390Y-72385714D02*
X91774819Y-72957142D01*
X91774819Y-72957142D02*
X91774819Y-72338095D01*
X84454819Y-72321904D02*
X85264342Y-72321904D01*
X85264342Y-72321904D02*
X85359580Y-72274285D01*
X85359580Y-72274285D02*
X85407200Y-72226666D01*
X85407200Y-72226666D02*
X85454819Y-72131428D01*
X85454819Y-72131428D02*
X85454819Y-71940952D01*
X85454819Y-71940952D02*
X85407200Y-71845714D01*
X85407200Y-71845714D02*
X85359580Y-71798095D01*
X85359580Y-71798095D02*
X85264342Y-71750476D01*
X85264342Y-71750476D02*
X84454819Y-71750476D01*
X84454819Y-70798095D02*
X84454819Y-71274285D01*
X84454819Y-71274285D02*
X84931009Y-71321904D01*
X84931009Y-71321904D02*
X84883390Y-71274285D01*
X84883390Y-71274285D02*
X84835771Y-71179047D01*
X84835771Y-71179047D02*
X84835771Y-70940952D01*
X84835771Y-70940952D02*
X84883390Y-70845714D01*
X84883390Y-70845714D02*
X84931009Y-70798095D01*
X84931009Y-70798095D02*
X85026247Y-70750476D01*
X85026247Y-70750476D02*
X85264342Y-70750476D01*
X85264342Y-70750476D02*
X85359580Y-70798095D01*
X85359580Y-70798095D02*
X85407200Y-70845714D01*
X85407200Y-70845714D02*
X85454819Y-70940952D01*
X85454819Y-70940952D02*
X85454819Y-71179047D01*
X85454819Y-71179047D02*
X85407200Y-71274285D01*
X85407200Y-71274285D02*
X85359580Y-71321904D01*
X109333333Y-57604819D02*
X109000000Y-57128628D01*
X108761905Y-57604819D02*
X108761905Y-56604819D01*
X108761905Y-56604819D02*
X109142857Y-56604819D01*
X109142857Y-56604819D02*
X109238095Y-56652438D01*
X109238095Y-56652438D02*
X109285714Y-56700057D01*
X109285714Y-56700057D02*
X109333333Y-56795295D01*
X109333333Y-56795295D02*
X109333333Y-56938152D01*
X109333333Y-56938152D02*
X109285714Y-57033390D01*
X109285714Y-57033390D02*
X109238095Y-57081009D01*
X109238095Y-57081009D02*
X109142857Y-57128628D01*
X109142857Y-57128628D02*
X108761905Y-57128628D01*
X109904762Y-57033390D02*
X109809524Y-56985771D01*
X109809524Y-56985771D02*
X109761905Y-56938152D01*
X109761905Y-56938152D02*
X109714286Y-56842914D01*
X109714286Y-56842914D02*
X109714286Y-56795295D01*
X109714286Y-56795295D02*
X109761905Y-56700057D01*
X109761905Y-56700057D02*
X109809524Y-56652438D01*
X109809524Y-56652438D02*
X109904762Y-56604819D01*
X109904762Y-56604819D02*
X110095238Y-56604819D01*
X110095238Y-56604819D02*
X110190476Y-56652438D01*
X110190476Y-56652438D02*
X110238095Y-56700057D01*
X110238095Y-56700057D02*
X110285714Y-56795295D01*
X110285714Y-56795295D02*
X110285714Y-56842914D01*
X110285714Y-56842914D02*
X110238095Y-56938152D01*
X110238095Y-56938152D02*
X110190476Y-56985771D01*
X110190476Y-56985771D02*
X110095238Y-57033390D01*
X110095238Y-57033390D02*
X109904762Y-57033390D01*
X109904762Y-57033390D02*
X109809524Y-57081009D01*
X109809524Y-57081009D02*
X109761905Y-57128628D01*
X109761905Y-57128628D02*
X109714286Y-57223866D01*
X109714286Y-57223866D02*
X109714286Y-57414342D01*
X109714286Y-57414342D02*
X109761905Y-57509580D01*
X109761905Y-57509580D02*
X109809524Y-57557200D01*
X109809524Y-57557200D02*
X109904762Y-57604819D01*
X109904762Y-57604819D02*
X110095238Y-57604819D01*
X110095238Y-57604819D02*
X110190476Y-57557200D01*
X110190476Y-57557200D02*
X110238095Y-57509580D01*
X110238095Y-57509580D02*
X110285714Y-57414342D01*
X110285714Y-57414342D02*
X110285714Y-57223866D01*
X110285714Y-57223866D02*
X110238095Y-57128628D01*
X110238095Y-57128628D02*
X110190476Y-57081009D01*
X110190476Y-57081009D02*
X110095238Y-57033390D01*
X123134819Y-59373333D02*
X123849104Y-59373333D01*
X123849104Y-59373333D02*
X123991961Y-59420952D01*
X123991961Y-59420952D02*
X124087200Y-59516190D01*
X124087200Y-59516190D02*
X124134819Y-59659047D01*
X124134819Y-59659047D02*
X124134819Y-59754285D01*
X123134819Y-58992380D02*
X123134819Y-58373333D01*
X123134819Y-58373333D02*
X123515771Y-58706666D01*
X123515771Y-58706666D02*
X123515771Y-58563809D01*
X123515771Y-58563809D02*
X123563390Y-58468571D01*
X123563390Y-58468571D02*
X123611009Y-58420952D01*
X123611009Y-58420952D02*
X123706247Y-58373333D01*
X123706247Y-58373333D02*
X123944342Y-58373333D01*
X123944342Y-58373333D02*
X124039580Y-58420952D01*
X124039580Y-58420952D02*
X124087200Y-58468571D01*
X124087200Y-58468571D02*
X124134819Y-58563809D01*
X124134819Y-58563809D02*
X124134819Y-58849523D01*
X124134819Y-58849523D02*
X124087200Y-58944761D01*
X124087200Y-58944761D02*
X124039580Y-58992380D01*
X101738095Y-51314819D02*
X101738095Y-52124342D01*
X101738095Y-52124342D02*
X101785714Y-52219580D01*
X101785714Y-52219580D02*
X101833333Y-52267200D01*
X101833333Y-52267200D02*
X101928571Y-52314819D01*
X101928571Y-52314819D02*
X102119047Y-52314819D01*
X102119047Y-52314819D02*
X102214285Y-52267200D01*
X102214285Y-52267200D02*
X102261904Y-52219580D01*
X102261904Y-52219580D02*
X102309523Y-52124342D01*
X102309523Y-52124342D02*
X102309523Y-51314819D01*
X102690476Y-51314819D02*
X103309523Y-51314819D01*
X103309523Y-51314819D02*
X102976190Y-51695771D01*
X102976190Y-51695771D02*
X103119047Y-51695771D01*
X103119047Y-51695771D02*
X103214285Y-51743390D01*
X103214285Y-51743390D02*
X103261904Y-51791009D01*
X103261904Y-51791009D02*
X103309523Y-51886247D01*
X103309523Y-51886247D02*
X103309523Y-52124342D01*
X103309523Y-52124342D02*
X103261904Y-52219580D01*
X103261904Y-52219580D02*
X103214285Y-52267200D01*
X103214285Y-52267200D02*
X103119047Y-52314819D01*
X103119047Y-52314819D02*
X102833333Y-52314819D01*
X102833333Y-52314819D02*
X102738095Y-52267200D01*
X102738095Y-52267200D02*
X102690476Y-52219580D01*
X99961666Y-64634819D02*
X99961666Y-65349104D01*
X99961666Y-65349104D02*
X99914047Y-65491961D01*
X99914047Y-65491961D02*
X99818809Y-65587200D01*
X99818809Y-65587200D02*
X99675952Y-65634819D01*
X99675952Y-65634819D02*
X99580714Y-65634819D01*
X100390238Y-64730057D02*
X100437857Y-64682438D01*
X100437857Y-64682438D02*
X100533095Y-64634819D01*
X100533095Y-64634819D02*
X100771190Y-64634819D01*
X100771190Y-64634819D02*
X100866428Y-64682438D01*
X100866428Y-64682438D02*
X100914047Y-64730057D01*
X100914047Y-64730057D02*
X100961666Y-64825295D01*
X100961666Y-64825295D02*
X100961666Y-64920533D01*
X100961666Y-64920533D02*
X100914047Y-65063390D01*
X100914047Y-65063390D02*
X100342619Y-65634819D01*
X100342619Y-65634819D02*
X100961666Y-65634819D01*
X116428095Y-51814819D02*
X116428095Y-52624342D01*
X116428095Y-52624342D02*
X116475714Y-52719580D01*
X116475714Y-52719580D02*
X116523333Y-52767200D01*
X116523333Y-52767200D02*
X116618571Y-52814819D01*
X116618571Y-52814819D02*
X116809047Y-52814819D01*
X116809047Y-52814819D02*
X116904285Y-52767200D01*
X116904285Y-52767200D02*
X116951904Y-52719580D01*
X116951904Y-52719580D02*
X116999523Y-52624342D01*
X116999523Y-52624342D02*
X116999523Y-51814819D01*
X117904285Y-52148152D02*
X117904285Y-52814819D01*
X117666190Y-51767200D02*
X117428095Y-52481485D01*
X117428095Y-52481485D02*
X118047142Y-52481485D01*
X112833333Y-52104819D02*
X112500000Y-51628628D01*
X112261905Y-52104819D02*
X112261905Y-51104819D01*
X112261905Y-51104819D02*
X112642857Y-51104819D01*
X112642857Y-51104819D02*
X112738095Y-51152438D01*
X112738095Y-51152438D02*
X112785714Y-51200057D01*
X112785714Y-51200057D02*
X112833333Y-51295295D01*
X112833333Y-51295295D02*
X112833333Y-51438152D01*
X112833333Y-51438152D02*
X112785714Y-51533390D01*
X112785714Y-51533390D02*
X112738095Y-51581009D01*
X112738095Y-51581009D02*
X112642857Y-51628628D01*
X112642857Y-51628628D02*
X112261905Y-51628628D01*
X113309524Y-52104819D02*
X113500000Y-52104819D01*
X113500000Y-52104819D02*
X113595238Y-52057200D01*
X113595238Y-52057200D02*
X113642857Y-52009580D01*
X113642857Y-52009580D02*
X113738095Y-51866723D01*
X113738095Y-51866723D02*
X113785714Y-51676247D01*
X113785714Y-51676247D02*
X113785714Y-51295295D01*
X113785714Y-51295295D02*
X113738095Y-51200057D01*
X113738095Y-51200057D02*
X113690476Y-51152438D01*
X113690476Y-51152438D02*
X113595238Y-51104819D01*
X113595238Y-51104819D02*
X113404762Y-51104819D01*
X113404762Y-51104819D02*
X113309524Y-51152438D01*
X113309524Y-51152438D02*
X113261905Y-51200057D01*
X113261905Y-51200057D02*
X113214286Y-51295295D01*
X113214286Y-51295295D02*
X113214286Y-51533390D01*
X113214286Y-51533390D02*
X113261905Y-51628628D01*
X113261905Y-51628628D02*
X113309524Y-51676247D01*
X113309524Y-51676247D02*
X113404762Y-51723866D01*
X113404762Y-51723866D02*
X113595238Y-51723866D01*
X113595238Y-51723866D02*
X113690476Y-51676247D01*
X113690476Y-51676247D02*
X113738095Y-51628628D01*
X113738095Y-51628628D02*
X113785714Y-51533390D01*
X83833333Y-52604819D02*
X83500000Y-52128628D01*
X83261905Y-52604819D02*
X83261905Y-51604819D01*
X83261905Y-51604819D02*
X83642857Y-51604819D01*
X83642857Y-51604819D02*
X83738095Y-51652438D01*
X83738095Y-51652438D02*
X83785714Y-51700057D01*
X83785714Y-51700057D02*
X83833333Y-51795295D01*
X83833333Y-51795295D02*
X83833333Y-51938152D01*
X83833333Y-51938152D02*
X83785714Y-52033390D01*
X83785714Y-52033390D02*
X83738095Y-52081009D01*
X83738095Y-52081009D02*
X83642857Y-52128628D01*
X83642857Y-52128628D02*
X83261905Y-52128628D01*
X84166667Y-51604819D02*
X84785714Y-51604819D01*
X84785714Y-51604819D02*
X84452381Y-51985771D01*
X84452381Y-51985771D02*
X84595238Y-51985771D01*
X84595238Y-51985771D02*
X84690476Y-52033390D01*
X84690476Y-52033390D02*
X84738095Y-52081009D01*
X84738095Y-52081009D02*
X84785714Y-52176247D01*
X84785714Y-52176247D02*
X84785714Y-52414342D01*
X84785714Y-52414342D02*
X84738095Y-52509580D01*
X84738095Y-52509580D02*
X84690476Y-52557200D01*
X84690476Y-52557200D02*
X84595238Y-52604819D01*
X84595238Y-52604819D02*
X84309524Y-52604819D01*
X84309524Y-52604819D02*
X84214286Y-52557200D01*
X84214286Y-52557200D02*
X84166667Y-52509580D01*
X108357142Y-48804819D02*
X108023809Y-48328628D01*
X107785714Y-48804819D02*
X107785714Y-47804819D01*
X107785714Y-47804819D02*
X108166666Y-47804819D01*
X108166666Y-47804819D02*
X108261904Y-47852438D01*
X108261904Y-47852438D02*
X108309523Y-47900057D01*
X108309523Y-47900057D02*
X108357142Y-47995295D01*
X108357142Y-47995295D02*
X108357142Y-48138152D01*
X108357142Y-48138152D02*
X108309523Y-48233390D01*
X108309523Y-48233390D02*
X108261904Y-48281009D01*
X108261904Y-48281009D02*
X108166666Y-48328628D01*
X108166666Y-48328628D02*
X107785714Y-48328628D01*
X109309523Y-48804819D02*
X108738095Y-48804819D01*
X109023809Y-48804819D02*
X109023809Y-47804819D01*
X109023809Y-47804819D02*
X108928571Y-47947676D01*
X108928571Y-47947676D02*
X108833333Y-48042914D01*
X108833333Y-48042914D02*
X108738095Y-48090533D01*
X109928571Y-47804819D02*
X110023809Y-47804819D01*
X110023809Y-47804819D02*
X110119047Y-47852438D01*
X110119047Y-47852438D02*
X110166666Y-47900057D01*
X110166666Y-47900057D02*
X110214285Y-47995295D01*
X110214285Y-47995295D02*
X110261904Y-48185771D01*
X110261904Y-48185771D02*
X110261904Y-48423866D01*
X110261904Y-48423866D02*
X110214285Y-48614342D01*
X110214285Y-48614342D02*
X110166666Y-48709580D01*
X110166666Y-48709580D02*
X110119047Y-48757200D01*
X110119047Y-48757200D02*
X110023809Y-48804819D01*
X110023809Y-48804819D02*
X109928571Y-48804819D01*
X109928571Y-48804819D02*
X109833333Y-48757200D01*
X109833333Y-48757200D02*
X109785714Y-48709580D01*
X109785714Y-48709580D02*
X109738095Y-48614342D01*
X109738095Y-48614342D02*
X109690476Y-48423866D01*
X109690476Y-48423866D02*
X109690476Y-48185771D01*
X109690476Y-48185771D02*
X109738095Y-47995295D01*
X109738095Y-47995295D02*
X109785714Y-47900057D01*
X109785714Y-47900057D02*
X109833333Y-47852438D01*
X109833333Y-47852438D02*
X109928571Y-47804819D01*
X132179580Y-51642857D02*
X132227200Y-51690476D01*
X132227200Y-51690476D02*
X132274819Y-51833333D01*
X132274819Y-51833333D02*
X132274819Y-51928571D01*
X132274819Y-51928571D02*
X132227200Y-52071428D01*
X132227200Y-52071428D02*
X132131961Y-52166666D01*
X132131961Y-52166666D02*
X132036723Y-52214285D01*
X132036723Y-52214285D02*
X131846247Y-52261904D01*
X131846247Y-52261904D02*
X131703390Y-52261904D01*
X131703390Y-52261904D02*
X131512914Y-52214285D01*
X131512914Y-52214285D02*
X131417676Y-52166666D01*
X131417676Y-52166666D02*
X131322438Y-52071428D01*
X131322438Y-52071428D02*
X131274819Y-51928571D01*
X131274819Y-51928571D02*
X131274819Y-51833333D01*
X131274819Y-51833333D02*
X131322438Y-51690476D01*
X131322438Y-51690476D02*
X131370057Y-51642857D01*
X132274819Y-50690476D02*
X132274819Y-51261904D01*
X132274819Y-50976190D02*
X131274819Y-50976190D01*
X131274819Y-50976190D02*
X131417676Y-51071428D01*
X131417676Y-51071428D02*
X131512914Y-51166666D01*
X131512914Y-51166666D02*
X131560533Y-51261904D01*
X131274819Y-50071428D02*
X131274819Y-49976190D01*
X131274819Y-49976190D02*
X131322438Y-49880952D01*
X131322438Y-49880952D02*
X131370057Y-49833333D01*
X131370057Y-49833333D02*
X131465295Y-49785714D01*
X131465295Y-49785714D02*
X131655771Y-49738095D01*
X131655771Y-49738095D02*
X131893866Y-49738095D01*
X131893866Y-49738095D02*
X132084342Y-49785714D01*
X132084342Y-49785714D02*
X132179580Y-49833333D01*
X132179580Y-49833333D02*
X132227200Y-49880952D01*
X132227200Y-49880952D02*
X132274819Y-49976190D01*
X132274819Y-49976190D02*
X132274819Y-50071428D01*
X132274819Y-50071428D02*
X132227200Y-50166666D01*
X132227200Y-50166666D02*
X132179580Y-50214285D01*
X132179580Y-50214285D02*
X132084342Y-50261904D01*
X132084342Y-50261904D02*
X131893866Y-50309523D01*
X131893866Y-50309523D02*
X131655771Y-50309523D01*
X131655771Y-50309523D02*
X131465295Y-50261904D01*
X131465295Y-50261904D02*
X131370057Y-50214285D01*
X131370057Y-50214285D02*
X131322438Y-50166666D01*
X131322438Y-50166666D02*
X131274819Y-50071428D01*
X55474819Y-58173333D02*
X56189104Y-58173333D01*
X56189104Y-58173333D02*
X56331961Y-58220952D01*
X56331961Y-58220952D02*
X56427200Y-58316190D01*
X56427200Y-58316190D02*
X56474819Y-58459047D01*
X56474819Y-58459047D02*
X56474819Y-58554285D01*
X56474819Y-57173333D02*
X56474819Y-57744761D01*
X56474819Y-57459047D02*
X55474819Y-57459047D01*
X55474819Y-57459047D02*
X55617676Y-57554285D01*
X55617676Y-57554285D02*
X55712914Y-57649523D01*
X55712914Y-57649523D02*
X55760533Y-57744761D01*
X80133333Y-59354819D02*
X79800000Y-58878628D01*
X79561905Y-59354819D02*
X79561905Y-58354819D01*
X79561905Y-58354819D02*
X79942857Y-58354819D01*
X79942857Y-58354819D02*
X80038095Y-58402438D01*
X80038095Y-58402438D02*
X80085714Y-58450057D01*
X80085714Y-58450057D02*
X80133333Y-58545295D01*
X80133333Y-58545295D02*
X80133333Y-58688152D01*
X80133333Y-58688152D02*
X80085714Y-58783390D01*
X80085714Y-58783390D02*
X80038095Y-58831009D01*
X80038095Y-58831009D02*
X79942857Y-58878628D01*
X79942857Y-58878628D02*
X79561905Y-58878628D01*
X80514286Y-58450057D02*
X80561905Y-58402438D01*
X80561905Y-58402438D02*
X80657143Y-58354819D01*
X80657143Y-58354819D02*
X80895238Y-58354819D01*
X80895238Y-58354819D02*
X80990476Y-58402438D01*
X80990476Y-58402438D02*
X81038095Y-58450057D01*
X81038095Y-58450057D02*
X81085714Y-58545295D01*
X81085714Y-58545295D02*
X81085714Y-58640533D01*
X81085714Y-58640533D02*
X81038095Y-58783390D01*
X81038095Y-58783390D02*
X80466667Y-59354819D01*
X80466667Y-59354819D02*
X81085714Y-59354819D01*
X128679580Y-51204166D02*
X128727200Y-51251785D01*
X128727200Y-51251785D02*
X128774819Y-51394642D01*
X128774819Y-51394642D02*
X128774819Y-51489880D01*
X128774819Y-51489880D02*
X128727200Y-51632737D01*
X128727200Y-51632737D02*
X128631961Y-51727975D01*
X128631961Y-51727975D02*
X128536723Y-51775594D01*
X128536723Y-51775594D02*
X128346247Y-51823213D01*
X128346247Y-51823213D02*
X128203390Y-51823213D01*
X128203390Y-51823213D02*
X128012914Y-51775594D01*
X128012914Y-51775594D02*
X127917676Y-51727975D01*
X127917676Y-51727975D02*
X127822438Y-51632737D01*
X127822438Y-51632737D02*
X127774819Y-51489880D01*
X127774819Y-51489880D02*
X127774819Y-51394642D01*
X127774819Y-51394642D02*
X127822438Y-51251785D01*
X127822438Y-51251785D02*
X127870057Y-51204166D01*
X128774819Y-50727975D02*
X128774819Y-50537499D01*
X128774819Y-50537499D02*
X128727200Y-50442261D01*
X128727200Y-50442261D02*
X128679580Y-50394642D01*
X128679580Y-50394642D02*
X128536723Y-50299404D01*
X128536723Y-50299404D02*
X128346247Y-50251785D01*
X128346247Y-50251785D02*
X127965295Y-50251785D01*
X127965295Y-50251785D02*
X127870057Y-50299404D01*
X127870057Y-50299404D02*
X127822438Y-50347023D01*
X127822438Y-50347023D02*
X127774819Y-50442261D01*
X127774819Y-50442261D02*
X127774819Y-50632737D01*
X127774819Y-50632737D02*
X127822438Y-50727975D01*
X127822438Y-50727975D02*
X127870057Y-50775594D01*
X127870057Y-50775594D02*
X127965295Y-50823213D01*
X127965295Y-50823213D02*
X128203390Y-50823213D01*
X128203390Y-50823213D02*
X128298628Y-50775594D01*
X128298628Y-50775594D02*
X128346247Y-50727975D01*
X128346247Y-50727975D02*
X128393866Y-50632737D01*
X128393866Y-50632737D02*
X128393866Y-50442261D01*
X128393866Y-50442261D02*
X128346247Y-50347023D01*
X128346247Y-50347023D02*
X128298628Y-50299404D01*
X128298628Y-50299404D02*
X128203390Y-50251785D01*
X67333333Y-47859580D02*
X67285714Y-47907200D01*
X67285714Y-47907200D02*
X67142857Y-47954819D01*
X67142857Y-47954819D02*
X67047619Y-47954819D01*
X67047619Y-47954819D02*
X66904762Y-47907200D01*
X66904762Y-47907200D02*
X66809524Y-47811961D01*
X66809524Y-47811961D02*
X66761905Y-47716723D01*
X66761905Y-47716723D02*
X66714286Y-47526247D01*
X66714286Y-47526247D02*
X66714286Y-47383390D01*
X66714286Y-47383390D02*
X66761905Y-47192914D01*
X66761905Y-47192914D02*
X66809524Y-47097676D01*
X66809524Y-47097676D02*
X66904762Y-47002438D01*
X66904762Y-47002438D02*
X67047619Y-46954819D01*
X67047619Y-46954819D02*
X67142857Y-46954819D01*
X67142857Y-46954819D02*
X67285714Y-47002438D01*
X67285714Y-47002438D02*
X67333333Y-47050057D01*
X68285714Y-47954819D02*
X67714286Y-47954819D01*
X68000000Y-47954819D02*
X68000000Y-46954819D01*
X68000000Y-46954819D02*
X67904762Y-47097676D01*
X67904762Y-47097676D02*
X67809524Y-47192914D01*
X67809524Y-47192914D02*
X67714286Y-47240533D01*
X106833333Y-72859580D02*
X106785714Y-72907200D01*
X106785714Y-72907200D02*
X106642857Y-72954819D01*
X106642857Y-72954819D02*
X106547619Y-72954819D01*
X106547619Y-72954819D02*
X106404762Y-72907200D01*
X106404762Y-72907200D02*
X106309524Y-72811961D01*
X106309524Y-72811961D02*
X106261905Y-72716723D01*
X106261905Y-72716723D02*
X106214286Y-72526247D01*
X106214286Y-72526247D02*
X106214286Y-72383390D01*
X106214286Y-72383390D02*
X106261905Y-72192914D01*
X106261905Y-72192914D02*
X106309524Y-72097676D01*
X106309524Y-72097676D02*
X106404762Y-72002438D01*
X106404762Y-72002438D02*
X106547619Y-71954819D01*
X106547619Y-71954819D02*
X106642857Y-71954819D01*
X106642857Y-71954819D02*
X106785714Y-72002438D01*
X106785714Y-72002438D02*
X106833333Y-72050057D01*
X107166667Y-71954819D02*
X107833333Y-71954819D01*
X107833333Y-71954819D02*
X107404762Y-72954819D01*
X123717080Y-51166666D02*
X123764700Y-51214285D01*
X123764700Y-51214285D02*
X123812319Y-51357142D01*
X123812319Y-51357142D02*
X123812319Y-51452380D01*
X123812319Y-51452380D02*
X123764700Y-51595237D01*
X123764700Y-51595237D02*
X123669461Y-51690475D01*
X123669461Y-51690475D02*
X123574223Y-51738094D01*
X123574223Y-51738094D02*
X123383747Y-51785713D01*
X123383747Y-51785713D02*
X123240890Y-51785713D01*
X123240890Y-51785713D02*
X123050414Y-51738094D01*
X123050414Y-51738094D02*
X122955176Y-51690475D01*
X122955176Y-51690475D02*
X122859938Y-51595237D01*
X122859938Y-51595237D02*
X122812319Y-51452380D01*
X122812319Y-51452380D02*
X122812319Y-51357142D01*
X122812319Y-51357142D02*
X122859938Y-51214285D01*
X122859938Y-51214285D02*
X122907557Y-51166666D01*
X123240890Y-50595237D02*
X123193271Y-50690475D01*
X123193271Y-50690475D02*
X123145652Y-50738094D01*
X123145652Y-50738094D02*
X123050414Y-50785713D01*
X123050414Y-50785713D02*
X123002795Y-50785713D01*
X123002795Y-50785713D02*
X122907557Y-50738094D01*
X122907557Y-50738094D02*
X122859938Y-50690475D01*
X122859938Y-50690475D02*
X122812319Y-50595237D01*
X122812319Y-50595237D02*
X122812319Y-50404761D01*
X122812319Y-50404761D02*
X122859938Y-50309523D01*
X122859938Y-50309523D02*
X122907557Y-50261904D01*
X122907557Y-50261904D02*
X123002795Y-50214285D01*
X123002795Y-50214285D02*
X123050414Y-50214285D01*
X123050414Y-50214285D02*
X123145652Y-50261904D01*
X123145652Y-50261904D02*
X123193271Y-50309523D01*
X123193271Y-50309523D02*
X123240890Y-50404761D01*
X123240890Y-50404761D02*
X123240890Y-50595237D01*
X123240890Y-50595237D02*
X123288509Y-50690475D01*
X123288509Y-50690475D02*
X123336128Y-50738094D01*
X123336128Y-50738094D02*
X123431366Y-50785713D01*
X123431366Y-50785713D02*
X123621842Y-50785713D01*
X123621842Y-50785713D02*
X123717080Y-50738094D01*
X123717080Y-50738094D02*
X123764700Y-50690475D01*
X123764700Y-50690475D02*
X123812319Y-50595237D01*
X123812319Y-50595237D02*
X123812319Y-50404761D01*
X123812319Y-50404761D02*
X123764700Y-50309523D01*
X123764700Y-50309523D02*
X123717080Y-50261904D01*
X123717080Y-50261904D02*
X123621842Y-50214285D01*
X123621842Y-50214285D02*
X123431366Y-50214285D01*
X123431366Y-50214285D02*
X123336128Y-50261904D01*
X123336128Y-50261904D02*
X123288509Y-50309523D01*
X123288509Y-50309523D02*
X123240890Y-50404761D01*
X106674762Y-41859580D02*
X106627143Y-41907200D01*
X106627143Y-41907200D02*
X106484286Y-41954819D01*
X106484286Y-41954819D02*
X106389048Y-41954819D01*
X106389048Y-41954819D02*
X106246191Y-41907200D01*
X106246191Y-41907200D02*
X106150953Y-41811961D01*
X106150953Y-41811961D02*
X106103334Y-41716723D01*
X106103334Y-41716723D02*
X106055715Y-41526247D01*
X106055715Y-41526247D02*
X106055715Y-41383390D01*
X106055715Y-41383390D02*
X106103334Y-41192914D01*
X106103334Y-41192914D02*
X106150953Y-41097676D01*
X106150953Y-41097676D02*
X106246191Y-41002438D01*
X106246191Y-41002438D02*
X106389048Y-40954819D01*
X106389048Y-40954819D02*
X106484286Y-40954819D01*
X106484286Y-40954819D02*
X106627143Y-41002438D01*
X106627143Y-41002438D02*
X106674762Y-41050057D01*
X107627143Y-41954819D02*
X107055715Y-41954819D01*
X107341429Y-41954819D02*
X107341429Y-40954819D01*
X107341429Y-40954819D02*
X107246191Y-41097676D01*
X107246191Y-41097676D02*
X107150953Y-41192914D01*
X107150953Y-41192914D02*
X107055715Y-41240533D01*
X108579524Y-41954819D02*
X108008096Y-41954819D01*
X108293810Y-41954819D02*
X108293810Y-40954819D01*
X108293810Y-40954819D02*
X108198572Y-41097676D01*
X108198572Y-41097676D02*
X108103334Y-41192914D01*
X108103334Y-41192914D02*
X108008096Y-41240533D01*
X103833333Y-48359580D02*
X103785714Y-48407200D01*
X103785714Y-48407200D02*
X103642857Y-48454819D01*
X103642857Y-48454819D02*
X103547619Y-48454819D01*
X103547619Y-48454819D02*
X103404762Y-48407200D01*
X103404762Y-48407200D02*
X103309524Y-48311961D01*
X103309524Y-48311961D02*
X103261905Y-48216723D01*
X103261905Y-48216723D02*
X103214286Y-48026247D01*
X103214286Y-48026247D02*
X103214286Y-47883390D01*
X103214286Y-47883390D02*
X103261905Y-47692914D01*
X103261905Y-47692914D02*
X103309524Y-47597676D01*
X103309524Y-47597676D02*
X103404762Y-47502438D01*
X103404762Y-47502438D02*
X103547619Y-47454819D01*
X103547619Y-47454819D02*
X103642857Y-47454819D01*
X103642857Y-47454819D02*
X103785714Y-47502438D01*
X103785714Y-47502438D02*
X103833333Y-47550057D01*
X104690476Y-47788152D02*
X104690476Y-48454819D01*
X104452381Y-47407200D02*
X104214286Y-48121485D01*
X104214286Y-48121485D02*
X104833333Y-48121485D01*
X88833333Y-48859580D02*
X88785714Y-48907200D01*
X88785714Y-48907200D02*
X88642857Y-48954819D01*
X88642857Y-48954819D02*
X88547619Y-48954819D01*
X88547619Y-48954819D02*
X88404762Y-48907200D01*
X88404762Y-48907200D02*
X88309524Y-48811961D01*
X88309524Y-48811961D02*
X88261905Y-48716723D01*
X88261905Y-48716723D02*
X88214286Y-48526247D01*
X88214286Y-48526247D02*
X88214286Y-48383390D01*
X88214286Y-48383390D02*
X88261905Y-48192914D01*
X88261905Y-48192914D02*
X88309524Y-48097676D01*
X88309524Y-48097676D02*
X88404762Y-48002438D01*
X88404762Y-48002438D02*
X88547619Y-47954819D01*
X88547619Y-47954819D02*
X88642857Y-47954819D01*
X88642857Y-47954819D02*
X88785714Y-48002438D01*
X88785714Y-48002438D02*
X88833333Y-48050057D01*
X89166667Y-47954819D02*
X89785714Y-47954819D01*
X89785714Y-47954819D02*
X89452381Y-48335771D01*
X89452381Y-48335771D02*
X89595238Y-48335771D01*
X89595238Y-48335771D02*
X89690476Y-48383390D01*
X89690476Y-48383390D02*
X89738095Y-48431009D01*
X89738095Y-48431009D02*
X89785714Y-48526247D01*
X89785714Y-48526247D02*
X89785714Y-48764342D01*
X89785714Y-48764342D02*
X89738095Y-48859580D01*
X89738095Y-48859580D02*
X89690476Y-48907200D01*
X89690476Y-48907200D02*
X89595238Y-48954819D01*
X89595238Y-48954819D02*
X89309524Y-48954819D01*
X89309524Y-48954819D02*
X89214286Y-48907200D01*
X89214286Y-48907200D02*
X89166667Y-48859580D01*
X86833333Y-46454819D02*
X86500000Y-45978628D01*
X86261905Y-46454819D02*
X86261905Y-45454819D01*
X86261905Y-45454819D02*
X86642857Y-45454819D01*
X86642857Y-45454819D02*
X86738095Y-45502438D01*
X86738095Y-45502438D02*
X86785714Y-45550057D01*
X86785714Y-45550057D02*
X86833333Y-45645295D01*
X86833333Y-45645295D02*
X86833333Y-45788152D01*
X86833333Y-45788152D02*
X86785714Y-45883390D01*
X86785714Y-45883390D02*
X86738095Y-45931009D01*
X86738095Y-45931009D02*
X86642857Y-45978628D01*
X86642857Y-45978628D02*
X86261905Y-45978628D01*
X87738095Y-45454819D02*
X87261905Y-45454819D01*
X87261905Y-45454819D02*
X87214286Y-45931009D01*
X87214286Y-45931009D02*
X87261905Y-45883390D01*
X87261905Y-45883390D02*
X87357143Y-45835771D01*
X87357143Y-45835771D02*
X87595238Y-45835771D01*
X87595238Y-45835771D02*
X87690476Y-45883390D01*
X87690476Y-45883390D02*
X87738095Y-45931009D01*
X87738095Y-45931009D02*
X87785714Y-46026247D01*
X87785714Y-46026247D02*
X87785714Y-46264342D01*
X87785714Y-46264342D02*
X87738095Y-46359580D01*
X87738095Y-46359580D02*
X87690476Y-46407200D01*
X87690476Y-46407200D02*
X87595238Y-46454819D01*
X87595238Y-46454819D02*
X87357143Y-46454819D01*
X87357143Y-46454819D02*
X87261905Y-46407200D01*
X87261905Y-46407200D02*
X87214286Y-46359580D01*
X56804819Y-62642857D02*
X56328628Y-62976190D01*
X56804819Y-63214285D02*
X55804819Y-63214285D01*
X55804819Y-63214285D02*
X55804819Y-62833333D01*
X55804819Y-62833333D02*
X55852438Y-62738095D01*
X55852438Y-62738095D02*
X55900057Y-62690476D01*
X55900057Y-62690476D02*
X55995295Y-62642857D01*
X55995295Y-62642857D02*
X56138152Y-62642857D01*
X56138152Y-62642857D02*
X56233390Y-62690476D01*
X56233390Y-62690476D02*
X56281009Y-62738095D01*
X56281009Y-62738095D02*
X56328628Y-62833333D01*
X56328628Y-62833333D02*
X56328628Y-63214285D01*
X56804819Y-61690476D02*
X56804819Y-62261904D01*
X56804819Y-61976190D02*
X55804819Y-61976190D01*
X55804819Y-61976190D02*
X55947676Y-62071428D01*
X55947676Y-62071428D02*
X56042914Y-62166666D01*
X56042914Y-62166666D02*
X56090533Y-62261904D01*
X56804819Y-60738095D02*
X56804819Y-61309523D01*
X56804819Y-61023809D02*
X55804819Y-61023809D01*
X55804819Y-61023809D02*
X55947676Y-61119047D01*
X55947676Y-61119047D02*
X56042914Y-61214285D01*
X56042914Y-61214285D02*
X56090533Y-61309523D01*
X77804819Y-63666666D02*
X77328628Y-63999999D01*
X77804819Y-64238094D02*
X76804819Y-64238094D01*
X76804819Y-64238094D02*
X76804819Y-63857142D01*
X76804819Y-63857142D02*
X76852438Y-63761904D01*
X76852438Y-63761904D02*
X76900057Y-63714285D01*
X76900057Y-63714285D02*
X76995295Y-63666666D01*
X76995295Y-63666666D02*
X77138152Y-63666666D01*
X77138152Y-63666666D02*
X77233390Y-63714285D01*
X77233390Y-63714285D02*
X77281009Y-63761904D01*
X77281009Y-63761904D02*
X77328628Y-63857142D01*
X77328628Y-63857142D02*
X77328628Y-64238094D01*
X77138152Y-62809523D02*
X77804819Y-62809523D01*
X76757200Y-63047618D02*
X77471485Y-63285713D01*
X77471485Y-63285713D02*
X77471485Y-62666666D01*
X118333333Y-48359580D02*
X118285714Y-48407200D01*
X118285714Y-48407200D02*
X118142857Y-48454819D01*
X118142857Y-48454819D02*
X118047619Y-48454819D01*
X118047619Y-48454819D02*
X117904762Y-48407200D01*
X117904762Y-48407200D02*
X117809524Y-48311961D01*
X117809524Y-48311961D02*
X117761905Y-48216723D01*
X117761905Y-48216723D02*
X117714286Y-48026247D01*
X117714286Y-48026247D02*
X117714286Y-47883390D01*
X117714286Y-47883390D02*
X117761905Y-47692914D01*
X117761905Y-47692914D02*
X117809524Y-47597676D01*
X117809524Y-47597676D02*
X117904762Y-47502438D01*
X117904762Y-47502438D02*
X118047619Y-47454819D01*
X118047619Y-47454819D02*
X118142857Y-47454819D01*
X118142857Y-47454819D02*
X118285714Y-47502438D01*
X118285714Y-47502438D02*
X118333333Y-47550057D01*
X119238095Y-47454819D02*
X118761905Y-47454819D01*
X118761905Y-47454819D02*
X118714286Y-47931009D01*
X118714286Y-47931009D02*
X118761905Y-47883390D01*
X118761905Y-47883390D02*
X118857143Y-47835771D01*
X118857143Y-47835771D02*
X119095238Y-47835771D01*
X119095238Y-47835771D02*
X119190476Y-47883390D01*
X119190476Y-47883390D02*
X119238095Y-47931009D01*
X119238095Y-47931009D02*
X119285714Y-48026247D01*
X119285714Y-48026247D02*
X119285714Y-48264342D01*
X119285714Y-48264342D02*
X119238095Y-48359580D01*
X119238095Y-48359580D02*
X119190476Y-48407200D01*
X119190476Y-48407200D02*
X119095238Y-48454819D01*
X119095238Y-48454819D02*
X118857143Y-48454819D01*
X118857143Y-48454819D02*
X118761905Y-48407200D01*
X118761905Y-48407200D02*
X118714286Y-48359580D01*
X109333333Y-62104819D02*
X109000000Y-61628628D01*
X108761905Y-62104819D02*
X108761905Y-61104819D01*
X108761905Y-61104819D02*
X109142857Y-61104819D01*
X109142857Y-61104819D02*
X109238095Y-61152438D01*
X109238095Y-61152438D02*
X109285714Y-61200057D01*
X109285714Y-61200057D02*
X109333333Y-61295295D01*
X109333333Y-61295295D02*
X109333333Y-61438152D01*
X109333333Y-61438152D02*
X109285714Y-61533390D01*
X109285714Y-61533390D02*
X109238095Y-61581009D01*
X109238095Y-61581009D02*
X109142857Y-61628628D01*
X109142857Y-61628628D02*
X108761905Y-61628628D01*
X109666667Y-61104819D02*
X110333333Y-61104819D01*
X110333333Y-61104819D02*
X109904762Y-62104819D01*
X68738095Y-52314819D02*
X68738095Y-53124342D01*
X68738095Y-53124342D02*
X68785714Y-53219580D01*
X68785714Y-53219580D02*
X68833333Y-53267200D01*
X68833333Y-53267200D02*
X68928571Y-53314819D01*
X68928571Y-53314819D02*
X69119047Y-53314819D01*
X69119047Y-53314819D02*
X69214285Y-53267200D01*
X69214285Y-53267200D02*
X69261904Y-53219580D01*
X69261904Y-53219580D02*
X69309523Y-53124342D01*
X69309523Y-53124342D02*
X69309523Y-52314819D01*
X70309523Y-53314819D02*
X69738095Y-53314819D01*
X70023809Y-53314819D02*
X70023809Y-52314819D01*
X70023809Y-52314819D02*
X69928571Y-52457676D01*
X69928571Y-52457676D02*
X69833333Y-52552914D01*
X69833333Y-52552914D02*
X69738095Y-52600533D01*
X71333333Y-47859580D02*
X71285714Y-47907200D01*
X71285714Y-47907200D02*
X71142857Y-47954819D01*
X71142857Y-47954819D02*
X71047619Y-47954819D01*
X71047619Y-47954819D02*
X70904762Y-47907200D01*
X70904762Y-47907200D02*
X70809524Y-47811961D01*
X70809524Y-47811961D02*
X70761905Y-47716723D01*
X70761905Y-47716723D02*
X70714286Y-47526247D01*
X70714286Y-47526247D02*
X70714286Y-47383390D01*
X70714286Y-47383390D02*
X70761905Y-47192914D01*
X70761905Y-47192914D02*
X70809524Y-47097676D01*
X70809524Y-47097676D02*
X70904762Y-47002438D01*
X70904762Y-47002438D02*
X71047619Y-46954819D01*
X71047619Y-46954819D02*
X71142857Y-46954819D01*
X71142857Y-46954819D02*
X71285714Y-47002438D01*
X71285714Y-47002438D02*
X71333333Y-47050057D01*
X71714286Y-47050057D02*
X71761905Y-47002438D01*
X71761905Y-47002438D02*
X71857143Y-46954819D01*
X71857143Y-46954819D02*
X72095238Y-46954819D01*
X72095238Y-46954819D02*
X72190476Y-47002438D01*
X72190476Y-47002438D02*
X72238095Y-47050057D01*
X72238095Y-47050057D02*
X72285714Y-47145295D01*
X72285714Y-47145295D02*
X72285714Y-47240533D01*
X72285714Y-47240533D02*
X72238095Y-47383390D01*
X72238095Y-47383390D02*
X71666667Y-47954819D01*
X71666667Y-47954819D02*
X72285714Y-47954819D01*
X84133333Y-66459580D02*
X84085714Y-66507200D01*
X84085714Y-66507200D02*
X83942857Y-66554819D01*
X83942857Y-66554819D02*
X83847619Y-66554819D01*
X83847619Y-66554819D02*
X83704762Y-66507200D01*
X83704762Y-66507200D02*
X83609524Y-66411961D01*
X83609524Y-66411961D02*
X83561905Y-66316723D01*
X83561905Y-66316723D02*
X83514286Y-66126247D01*
X83514286Y-66126247D02*
X83514286Y-65983390D01*
X83514286Y-65983390D02*
X83561905Y-65792914D01*
X83561905Y-65792914D02*
X83609524Y-65697676D01*
X83609524Y-65697676D02*
X83704762Y-65602438D01*
X83704762Y-65602438D02*
X83847619Y-65554819D01*
X83847619Y-65554819D02*
X83942857Y-65554819D01*
X83942857Y-65554819D02*
X84085714Y-65602438D01*
X84085714Y-65602438D02*
X84133333Y-65650057D01*
X84990476Y-65554819D02*
X84800000Y-65554819D01*
X84800000Y-65554819D02*
X84704762Y-65602438D01*
X84704762Y-65602438D02*
X84657143Y-65650057D01*
X84657143Y-65650057D02*
X84561905Y-65792914D01*
X84561905Y-65792914D02*
X84514286Y-65983390D01*
X84514286Y-65983390D02*
X84514286Y-66364342D01*
X84514286Y-66364342D02*
X84561905Y-66459580D01*
X84561905Y-66459580D02*
X84609524Y-66507200D01*
X84609524Y-66507200D02*
X84704762Y-66554819D01*
X84704762Y-66554819D02*
X84895238Y-66554819D01*
X84895238Y-66554819D02*
X84990476Y-66507200D01*
X84990476Y-66507200D02*
X85038095Y-66459580D01*
X85038095Y-66459580D02*
X85085714Y-66364342D01*
X85085714Y-66364342D02*
X85085714Y-66126247D01*
X85085714Y-66126247D02*
X85038095Y-66031009D01*
X85038095Y-66031009D02*
X84990476Y-65983390D01*
X84990476Y-65983390D02*
X84895238Y-65935771D01*
X84895238Y-65935771D02*
X84704762Y-65935771D01*
X84704762Y-65935771D02*
X84609524Y-65983390D01*
X84609524Y-65983390D02*
X84561905Y-66031009D01*
X84561905Y-66031009D02*
X84514286Y-66126247D01*
X78833333Y-54454819D02*
X78500000Y-53978628D01*
X78261905Y-54454819D02*
X78261905Y-53454819D01*
X78261905Y-53454819D02*
X78642857Y-53454819D01*
X78642857Y-53454819D02*
X78738095Y-53502438D01*
X78738095Y-53502438D02*
X78785714Y-53550057D01*
X78785714Y-53550057D02*
X78833333Y-53645295D01*
X78833333Y-53645295D02*
X78833333Y-53788152D01*
X78833333Y-53788152D02*
X78785714Y-53883390D01*
X78785714Y-53883390D02*
X78738095Y-53931009D01*
X78738095Y-53931009D02*
X78642857Y-53978628D01*
X78642857Y-53978628D02*
X78261905Y-53978628D01*
X79785714Y-54454819D02*
X79214286Y-54454819D01*
X79500000Y-54454819D02*
X79500000Y-53454819D01*
X79500000Y-53454819D02*
X79404762Y-53597676D01*
X79404762Y-53597676D02*
X79309524Y-53692914D01*
X79309524Y-53692914D02*
X79214286Y-53740533D01*
X75938095Y-67054819D02*
X76509523Y-67054819D01*
X76223809Y-68054819D02*
X76223809Y-67054819D01*
X77366666Y-68054819D02*
X76795238Y-68054819D01*
X77080952Y-68054819D02*
X77080952Y-67054819D01*
X77080952Y-67054819D02*
X76985714Y-67197676D01*
X76985714Y-67197676D02*
X76890476Y-67292914D01*
X76890476Y-67292914D02*
X76795238Y-67340533D01*
X86238095Y-51814819D02*
X86238095Y-52624342D01*
X86238095Y-52624342D02*
X86285714Y-52719580D01*
X86285714Y-52719580D02*
X86333333Y-52767200D01*
X86333333Y-52767200D02*
X86428571Y-52814819D01*
X86428571Y-52814819D02*
X86619047Y-52814819D01*
X86619047Y-52814819D02*
X86714285Y-52767200D01*
X86714285Y-52767200D02*
X86761904Y-52719580D01*
X86761904Y-52719580D02*
X86809523Y-52624342D01*
X86809523Y-52624342D02*
X86809523Y-51814819D01*
X87238095Y-51910057D02*
X87285714Y-51862438D01*
X87285714Y-51862438D02*
X87380952Y-51814819D01*
X87380952Y-51814819D02*
X87619047Y-51814819D01*
X87619047Y-51814819D02*
X87714285Y-51862438D01*
X87714285Y-51862438D02*
X87761904Y-51910057D01*
X87761904Y-51910057D02*
X87809523Y-52005295D01*
X87809523Y-52005295D02*
X87809523Y-52100533D01*
X87809523Y-52100533D02*
X87761904Y-52243390D01*
X87761904Y-52243390D02*
X87190476Y-52814819D01*
X87190476Y-52814819D02*
X87809523Y-52814819D01*
X60104819Y-55142857D02*
X59628628Y-55476190D01*
X60104819Y-55714285D02*
X59104819Y-55714285D01*
X59104819Y-55714285D02*
X59104819Y-55333333D01*
X59104819Y-55333333D02*
X59152438Y-55238095D01*
X59152438Y-55238095D02*
X59200057Y-55190476D01*
X59200057Y-55190476D02*
X59295295Y-55142857D01*
X59295295Y-55142857D02*
X59438152Y-55142857D01*
X59438152Y-55142857D02*
X59533390Y-55190476D01*
X59533390Y-55190476D02*
X59581009Y-55238095D01*
X59581009Y-55238095D02*
X59628628Y-55333333D01*
X59628628Y-55333333D02*
X59628628Y-55714285D01*
X60104819Y-54190476D02*
X60104819Y-54761904D01*
X60104819Y-54476190D02*
X59104819Y-54476190D01*
X59104819Y-54476190D02*
X59247676Y-54571428D01*
X59247676Y-54571428D02*
X59342914Y-54666666D01*
X59342914Y-54666666D02*
X59390533Y-54761904D01*
X59200057Y-53809523D02*
X59152438Y-53761904D01*
X59152438Y-53761904D02*
X59104819Y-53666666D01*
X59104819Y-53666666D02*
X59104819Y-53428571D01*
X59104819Y-53428571D02*
X59152438Y-53333333D01*
X59152438Y-53333333D02*
X59200057Y-53285714D01*
X59200057Y-53285714D02*
X59295295Y-53238095D01*
X59295295Y-53238095D02*
X59390533Y-53238095D01*
X59390533Y-53238095D02*
X59533390Y-53285714D01*
X59533390Y-53285714D02*
X60104819Y-53857142D01*
X60104819Y-53857142D02*
X60104819Y-53238095D01*
%TO.C,C13*%
D11*
X93735000Y-68738748D02*
X93735000Y-69261252D01*
X92265000Y-68738748D02*
X92265000Y-69261252D01*
%TO.C,C12*%
X92265000Y-73861252D02*
X92265000Y-73338748D01*
X93735000Y-73861252D02*
X93735000Y-73338748D01*
%TO.C,U5*%
X85840000Y-76670000D02*
X85840000Y-66450000D01*
X87220000Y-76670000D02*
X87220000Y-66450000D01*
X90460000Y-76670000D02*
X85840000Y-76670000D01*
X85840000Y-73410000D02*
X87220000Y-73410000D01*
X85840000Y-69710000D02*
X87220000Y-69710000D01*
X85840000Y-66450000D02*
X90460000Y-66450000D01*
X90460000Y-66450000D02*
X90460000Y-76670000D01*
%TO.C,RV1*%
D12*
X92062500Y-40087500D02*
X96862500Y-40087500D01*
X96862500Y-59587500D01*
X92062500Y-59587500D01*
X92062500Y-40087500D01*
%TO.C,R8*%
D11*
X109727064Y-54765000D02*
X109272936Y-54765000D01*
X109727064Y-56235000D02*
X109272936Y-56235000D01*
%TO.C,J3*%
X124680000Y-53840000D02*
X134720000Y-53840000D01*
X124680000Y-64240000D02*
X124680000Y-53840000D01*
X127700000Y-64240000D02*
X127700000Y-53840000D01*
X132600000Y-64240000D02*
X132600000Y-53840000D01*
X134100000Y-64240000D02*
X134100000Y-53840000D01*
X134720000Y-53840000D02*
X134720000Y-61280000D01*
X134720000Y-61880000D02*
X134720000Y-64240000D01*
X134720000Y-64240000D02*
X124680000Y-64240000D01*
X134720000Y-61580000D02*
X135330000Y-61140000D01*
X135330000Y-62020000D01*
X134720000Y-61580000D01*
G36*
X135330000Y-62020000D02*
G01*
X134720000Y-61580000D01*
X135330000Y-61140000D01*
X135330000Y-62020000D01*
G37*
%TO.C,U3*%
X99850000Y-52860000D02*
X99850000Y-63140000D01*
X99850000Y-63140000D02*
X105150000Y-63140000D01*
X101500000Y-52860000D02*
X99850000Y-52860000D01*
X105150000Y-52860000D02*
X103500000Y-52860000D01*
X105150000Y-63140000D02*
X105150000Y-52860000D01*
X103500000Y-52860000D02*
G75*
G02*
X101500000Y-52860000I-1000000J0D01*
G01*
%TO.C,J2*%
X95095000Y-66180000D02*
X105495000Y-66180000D01*
X95095000Y-69200000D02*
X105495000Y-69200000D01*
X95095000Y-74100000D02*
X105495000Y-74100000D01*
X95095000Y-75600000D02*
X105495000Y-75600000D01*
X95095000Y-76220000D02*
X95095000Y-66180000D01*
X97455000Y-76220000D02*
X95095000Y-76220000D01*
X105495000Y-66180000D02*
X105495000Y-76220000D01*
X105495000Y-76220000D02*
X98055000Y-76220000D01*
X97755000Y-76220000D02*
X98195000Y-76830000D01*
X97315000Y-76830000D01*
X97755000Y-76220000D01*
G36*
X98195000Y-76830000D02*
G01*
X97315000Y-76830000D01*
X97755000Y-76220000D01*
X98195000Y-76830000D01*
G37*
%TO.C,U4*%
X114540000Y-53360000D02*
X114540000Y-63640000D01*
X114540000Y-63640000D02*
X119840000Y-63640000D01*
X116190000Y-53360000D02*
X114540000Y-53360000D01*
X119840000Y-53360000D02*
X118190000Y-53360000D01*
X119840000Y-63640000D02*
X119840000Y-53360000D01*
X118190000Y-53360000D02*
G75*
G02*
X116190000Y-53360000I-1000000J0D01*
G01*
%TO.C,R9*%
X113227064Y-49265000D02*
X112772936Y-49265000D01*
X113227064Y-50735000D02*
X112772936Y-50735000D01*
%TO.C,R3*%
X84227064Y-49765000D02*
X83772936Y-49765000D01*
X84227064Y-51235000D02*
X83772936Y-51235000D01*
%TO.C,R10*%
X108772936Y-49265000D02*
X109227064Y-49265000D01*
X108772936Y-50735000D02*
X109227064Y-50735000D01*
%TO.C,C10*%
X132765000Y-51261252D02*
X132765000Y-50738748D01*
X134235000Y-51261252D02*
X134235000Y-50738748D01*
%TO.C,J1*%
X44980000Y-52640000D02*
X55020000Y-52640000D01*
X44980000Y-55000000D02*
X44980000Y-52640000D01*
X44980000Y-63040000D02*
X44980000Y-55600000D01*
X45600000Y-52640000D02*
X45600000Y-63040000D01*
X47100000Y-52640000D02*
X47100000Y-63040000D01*
X52000000Y-52640000D02*
X52000000Y-63040000D01*
X55020000Y-52640000D02*
X55020000Y-63040000D01*
X55020000Y-63040000D02*
X44980000Y-63040000D01*
X44980000Y-55300000D02*
X44370000Y-55740000D01*
X44370000Y-54860000D01*
X44980000Y-55300000D01*
G36*
X44980000Y-55300000D02*
G01*
X44370000Y-55740000D01*
X44370000Y-54860000D01*
X44980000Y-55300000D01*
G37*
%TO.C,R2*%
X79227064Y-59765000D02*
X78772936Y-59765000D01*
X79227064Y-61235000D02*
X78772936Y-61235000D01*
%TO.C,C9*%
X129265000Y-51298752D02*
X129265000Y-50776248D01*
X130735000Y-51298752D02*
X130735000Y-50776248D01*
%TO.C,R6*%
X94860436Y-60265000D02*
X95314564Y-60265000D01*
X94860436Y-61735000D02*
X95314564Y-61735000D01*
%TO.C,C1*%
X66765000Y-50276248D02*
X66765000Y-50798752D01*
X68235000Y-50276248D02*
X68235000Y-50798752D01*
%TO.C,C7*%
X106067380Y-66161000D02*
X106697380Y-66161000D01*
X106382380Y-65846000D02*
X106382380Y-66476000D01*
X109567621Y-64770000D02*
X109567621Y-71230000D01*
X109607621Y-64770000D02*
X109607621Y-71230000D01*
X109647621Y-64771000D02*
X109647621Y-71229000D01*
X109687621Y-64772000D02*
X109687621Y-71228000D01*
X109727621Y-64774000D02*
X109727621Y-71226000D01*
X109767621Y-64776000D02*
X109767621Y-71224000D01*
X109807621Y-64779000D02*
X109807621Y-66960000D01*
X109807621Y-69040000D02*
X109807621Y-71221000D01*
X109847621Y-64782000D02*
X109847621Y-66960000D01*
X109847621Y-69040000D02*
X109847621Y-71218000D01*
X109887621Y-64786000D02*
X109887621Y-66960000D01*
X109887621Y-69040000D02*
X109887621Y-71214000D01*
X109927621Y-64790000D02*
X109927621Y-66960000D01*
X109927621Y-69040000D02*
X109927621Y-71210000D01*
X109967621Y-64795000D02*
X109967621Y-66960000D01*
X109967621Y-69040000D02*
X109967621Y-71205000D01*
X110007621Y-64800000D02*
X110007621Y-66960000D01*
X110007621Y-69040000D02*
X110007621Y-71200000D01*
X110047621Y-64805000D02*
X110047621Y-66960000D01*
X110047621Y-69040000D02*
X110047621Y-71195000D01*
X110087621Y-64812000D02*
X110087621Y-66960000D01*
X110087621Y-69040000D02*
X110087621Y-71188000D01*
X110127621Y-64818000D02*
X110127621Y-66960000D01*
X110127621Y-69040000D02*
X110127621Y-71182000D01*
X110167621Y-64826000D02*
X110167621Y-66960000D01*
X110167621Y-69040000D02*
X110167621Y-71174000D01*
X110207621Y-64833000D02*
X110207621Y-66960000D01*
X110207621Y-69040000D02*
X110207621Y-71167000D01*
X110247621Y-64841000D02*
X110247621Y-66960000D01*
X110247621Y-69040000D02*
X110247621Y-71159000D01*
X110287621Y-64850000D02*
X110287621Y-66960000D01*
X110287621Y-69040000D02*
X110287621Y-71150000D01*
X110327621Y-64860000D02*
X110327621Y-66960000D01*
X110327621Y-69040000D02*
X110327621Y-71140000D01*
X110367621Y-64869000D02*
X110367621Y-66960000D01*
X110367621Y-69040000D02*
X110367621Y-71131000D01*
X110407621Y-64880000D02*
X110407621Y-66960000D01*
X110407621Y-69040000D02*
X110407621Y-71120000D01*
X110447621Y-64891000D02*
X110447621Y-66960000D01*
X110447621Y-69040000D02*
X110447621Y-71109000D01*
X110487621Y-64902000D02*
X110487621Y-66960000D01*
X110487621Y-69040000D02*
X110487621Y-71098000D01*
X110527621Y-64914000D02*
X110527621Y-66960000D01*
X110527621Y-69040000D02*
X110527621Y-71086000D01*
X110567621Y-64927000D02*
X110567621Y-66960000D01*
X110567621Y-69040000D02*
X110567621Y-71073000D01*
X110607621Y-64940000D02*
X110607621Y-66960000D01*
X110607621Y-69040000D02*
X110607621Y-71060000D01*
X110647621Y-64953000D02*
X110647621Y-66960000D01*
X110647621Y-69040000D02*
X110647621Y-71047000D01*
X110687621Y-64968000D02*
X110687621Y-66960000D01*
X110687621Y-69040000D02*
X110687621Y-71032000D01*
X110727621Y-64983000D02*
X110727621Y-66960000D01*
X110727621Y-69040000D02*
X110727621Y-71017000D01*
X110767621Y-64998000D02*
X110767621Y-66960000D01*
X110767621Y-69040000D02*
X110767621Y-71002000D01*
X110807621Y-65014000D02*
X110807621Y-66960000D01*
X110807621Y-69040000D02*
X110807621Y-70986000D01*
X110847621Y-65031000D02*
X110847621Y-66960000D01*
X110847621Y-69040000D02*
X110847621Y-70969000D01*
X110887621Y-65048000D02*
X110887621Y-66960000D01*
X110887621Y-69040000D02*
X110887621Y-70952000D01*
X110927621Y-65066000D02*
X110927621Y-66960000D01*
X110927621Y-69040000D02*
X110927621Y-70934000D01*
X110967621Y-65085000D02*
X110967621Y-66960000D01*
X110967621Y-69040000D02*
X110967621Y-70915000D01*
X111007621Y-65104000D02*
X111007621Y-66960000D01*
X111007621Y-69040000D02*
X111007621Y-70896000D01*
X111047621Y-65124000D02*
X111047621Y-66960000D01*
X111047621Y-69040000D02*
X111047621Y-70876000D01*
X111087621Y-65145000D02*
X111087621Y-66960000D01*
X111087621Y-69040000D02*
X111087621Y-70855000D01*
X111127621Y-65166000D02*
X111127621Y-66960000D01*
X111127621Y-69040000D02*
X111127621Y-70834000D01*
X111167621Y-65188000D02*
X111167621Y-66960000D01*
X111167621Y-69040000D02*
X111167621Y-70812000D01*
X111207621Y-65211000D02*
X111207621Y-66960000D01*
X111207621Y-69040000D02*
X111207621Y-70789000D01*
X111247621Y-65235000D02*
X111247621Y-66960000D01*
X111247621Y-69040000D02*
X111247621Y-70765000D01*
X111287621Y-65259000D02*
X111287621Y-66960000D01*
X111287621Y-69040000D02*
X111287621Y-70741000D01*
X111327621Y-65284000D02*
X111327621Y-66960000D01*
X111327621Y-69040000D02*
X111327621Y-70716000D01*
X111367621Y-65310000D02*
X111367621Y-66960000D01*
X111367621Y-69040000D02*
X111367621Y-70690000D01*
X111407621Y-65337000D02*
X111407621Y-66960000D01*
X111407621Y-69040000D02*
X111407621Y-70663000D01*
X111447621Y-65364000D02*
X111447621Y-66960000D01*
X111447621Y-69040000D02*
X111447621Y-70636000D01*
X111487621Y-65393000D02*
X111487621Y-66960000D01*
X111487621Y-69040000D02*
X111487621Y-70607000D01*
X111527621Y-65423000D02*
X111527621Y-66960000D01*
X111527621Y-69040000D02*
X111527621Y-70577000D01*
X111567621Y-65453000D02*
X111567621Y-66960000D01*
X111567621Y-69040000D02*
X111567621Y-70547000D01*
X111607621Y-65484000D02*
X111607621Y-66960000D01*
X111607621Y-69040000D02*
X111607621Y-70516000D01*
X111647621Y-65517000D02*
X111647621Y-66960000D01*
X111647621Y-69040000D02*
X111647621Y-70483000D01*
X111687621Y-65550000D02*
X111687621Y-66960000D01*
X111687621Y-69040000D02*
X111687621Y-70450000D01*
X111727621Y-65585000D02*
X111727621Y-66960000D01*
X111727621Y-69040000D02*
X111727621Y-70415000D01*
X111767621Y-65621000D02*
X111767621Y-66960000D01*
X111767621Y-69040000D02*
X111767621Y-70379000D01*
X111807621Y-65658000D02*
X111807621Y-66960000D01*
X111807621Y-69040000D02*
X111807621Y-70342000D01*
X111847621Y-65696000D02*
X111847621Y-66960000D01*
X111847621Y-69040000D02*
X111847621Y-70304000D01*
X111887621Y-65736000D02*
X111887621Y-70264000D01*
X111927621Y-65777000D02*
X111927621Y-70223000D01*
X111967621Y-65819000D02*
X111967621Y-70181000D01*
X112007621Y-65863000D02*
X112007621Y-70137000D01*
X112047621Y-65909000D02*
X112047621Y-70091000D01*
X112087621Y-65956000D02*
X112087621Y-70044000D01*
X112127621Y-66005000D02*
X112127621Y-69995000D01*
X112167621Y-66057000D02*
X112167621Y-69943000D01*
X112207621Y-66110000D02*
X112207621Y-69890000D01*
X112247621Y-66166000D02*
X112247621Y-69834000D01*
X112287621Y-66225000D02*
X112287621Y-69775000D01*
X112327621Y-66286000D02*
X112327621Y-69714000D01*
X112367621Y-66351000D02*
X112367621Y-69649000D01*
X112407621Y-66419000D02*
X112407621Y-69581000D01*
X112447621Y-66491000D02*
X112447621Y-69509000D01*
X112487621Y-66568000D02*
X112487621Y-69432000D01*
X112527621Y-66650000D02*
X112527621Y-69350000D01*
X112567621Y-66739000D02*
X112567621Y-69261000D01*
X112607621Y-66835000D02*
X112607621Y-69165000D01*
X112647621Y-66942000D02*
X112647621Y-69058000D01*
X112687621Y-67061000D02*
X112687621Y-68939000D01*
X112727621Y-67199000D02*
X112727621Y-68801000D01*
X112767621Y-67367000D02*
X112767621Y-68633000D01*
X112807621Y-67598000D02*
X112807621Y-68402000D01*
X112837621Y-68000000D02*
G75*
G02*
X106297621Y-68000000I-3270000J0D01*
G01*
X106297621Y-68000000D02*
G75*
G02*
X112837621Y-68000000I3270000J0D01*
G01*
%TO.C,C8*%
X124302500Y-51261252D02*
X124302500Y-50738748D01*
X125772500Y-51261252D02*
X125772500Y-50738748D01*
%TO.C,C11*%
X99510000Y-43902000D02*
X99510000Y-43098000D01*
X99550000Y-44133000D02*
X99550000Y-42867000D01*
X99590000Y-44301000D02*
X99590000Y-42699000D01*
X99630000Y-44439000D02*
X99630000Y-42561000D01*
X99670000Y-44558000D02*
X99670000Y-42442000D01*
X99710000Y-44665000D02*
X99710000Y-42335000D01*
X99750000Y-44761000D02*
X99750000Y-42239000D01*
X99790000Y-44850000D02*
X99790000Y-42150000D01*
X99830000Y-44932000D02*
X99830000Y-42068000D01*
X99870000Y-45009000D02*
X99870000Y-41991000D01*
X99910000Y-45081000D02*
X99910000Y-41919000D01*
X99950000Y-45149000D02*
X99950000Y-41851000D01*
X99990000Y-45214000D02*
X99990000Y-41786000D01*
X100030000Y-45275000D02*
X100030000Y-41725000D01*
X100070000Y-45334000D02*
X100070000Y-41666000D01*
X100110000Y-45390000D02*
X100110000Y-41610000D01*
X100150000Y-45443000D02*
X100150000Y-41557000D01*
X100190000Y-45495000D02*
X100190000Y-41505000D01*
X100230000Y-45544000D02*
X100230000Y-41456000D01*
X100270000Y-45591000D02*
X100270000Y-41409000D01*
X100310000Y-45637000D02*
X100310000Y-41363000D01*
X100350000Y-45681000D02*
X100350000Y-41319000D01*
X100390000Y-45723000D02*
X100390000Y-41277000D01*
X100430000Y-45764000D02*
X100430000Y-41236000D01*
X100470000Y-42460000D02*
X100470000Y-41196000D01*
X100470000Y-45804000D02*
X100470000Y-44540000D01*
X100510000Y-42460000D02*
X100510000Y-41158000D01*
X100510000Y-45842000D02*
X100510000Y-44540000D01*
X100550000Y-42460000D02*
X100550000Y-41121000D01*
X100550000Y-45879000D02*
X100550000Y-44540000D01*
X100590000Y-42460000D02*
X100590000Y-41085000D01*
X100590000Y-45915000D02*
X100590000Y-44540000D01*
X100630000Y-42460000D02*
X100630000Y-41050000D01*
X100630000Y-45950000D02*
X100630000Y-44540000D01*
X100670000Y-42460000D02*
X100670000Y-41017000D01*
X100670000Y-45983000D02*
X100670000Y-44540000D01*
X100710000Y-42460000D02*
X100710000Y-40984000D01*
X100710000Y-46016000D02*
X100710000Y-44540000D01*
X100750000Y-42460000D02*
X100750000Y-40953000D01*
X100750000Y-46047000D02*
X100750000Y-44540000D01*
X100790000Y-42460000D02*
X100790000Y-40923000D01*
X100790000Y-46077000D02*
X100790000Y-44540000D01*
X100830000Y-42460000D02*
X100830000Y-40893000D01*
X100830000Y-46107000D02*
X100830000Y-44540000D01*
X100870000Y-42460000D02*
X100870000Y-40864000D01*
X100870000Y-46136000D02*
X100870000Y-44540000D01*
X100910000Y-42460000D02*
X100910000Y-40837000D01*
X100910000Y-46163000D02*
X100910000Y-44540000D01*
X100950000Y-42460000D02*
X100950000Y-40810000D01*
X100950000Y-46190000D02*
X100950000Y-44540000D01*
X100990000Y-42460000D02*
X100990000Y-40784000D01*
X100990000Y-46216000D02*
X100990000Y-44540000D01*
X101030000Y-42460000D02*
X101030000Y-40759000D01*
X101030000Y-46241000D02*
X101030000Y-44540000D01*
X101070000Y-42460000D02*
X101070000Y-40735000D01*
X101070000Y-46265000D02*
X101070000Y-44540000D01*
X101110000Y-42460000D02*
X101110000Y-40711000D01*
X101110000Y-46289000D02*
X101110000Y-44540000D01*
X101150000Y-42460000D02*
X101150000Y-40688000D01*
X101150000Y-46312000D02*
X101150000Y-44540000D01*
X101190000Y-42460000D02*
X101190000Y-40666000D01*
X101190000Y-46334000D02*
X101190000Y-44540000D01*
X101230000Y-42460000D02*
X101230000Y-40645000D01*
X101230000Y-46355000D02*
X101230000Y-44540000D01*
X101270000Y-42460000D02*
X101270000Y-40624000D01*
X101270000Y-46376000D02*
X101270000Y-44540000D01*
X101310000Y-42460000D02*
X101310000Y-40604000D01*
X101310000Y-46396000D02*
X101310000Y-44540000D01*
X101350000Y-42460000D02*
X101350000Y-40585000D01*
X101350000Y-46415000D02*
X101350000Y-44540000D01*
X101390000Y-42460000D02*
X101390000Y-40566000D01*
X101390000Y-46434000D02*
X101390000Y-44540000D01*
X101430000Y-42460000D02*
X101430000Y-40548000D01*
X101430000Y-46452000D02*
X101430000Y-44540000D01*
X101470000Y-42460000D02*
X101470000Y-40531000D01*
X101470000Y-46469000D02*
X101470000Y-44540000D01*
X101510000Y-42460000D02*
X101510000Y-40514000D01*
X101510000Y-46486000D02*
X101510000Y-44540000D01*
X101550000Y-42460000D02*
X101550000Y-40498000D01*
X101550000Y-46502000D02*
X101550000Y-44540000D01*
X101590000Y-42460000D02*
X101590000Y-40483000D01*
X101590000Y-46517000D02*
X101590000Y-44540000D01*
X101630000Y-42460000D02*
X101630000Y-40468000D01*
X101630000Y-46532000D02*
X101630000Y-44540000D01*
X101670000Y-42460000D02*
X101670000Y-40453000D01*
X101670000Y-46547000D02*
X101670000Y-44540000D01*
X101710000Y-42460000D02*
X101710000Y-40440000D01*
X101710000Y-46560000D02*
X101710000Y-44540000D01*
X101750000Y-42460000D02*
X101750000Y-40427000D01*
X101750000Y-46573000D02*
X101750000Y-44540000D01*
X101790000Y-42460000D02*
X101790000Y-40414000D01*
X101790000Y-46586000D02*
X101790000Y-44540000D01*
X101830000Y-42460000D02*
X101830000Y-40402000D01*
X101830000Y-46598000D02*
X101830000Y-44540000D01*
X101870000Y-42460000D02*
X101870000Y-40391000D01*
X101870000Y-46609000D02*
X101870000Y-44540000D01*
X101910000Y-42460000D02*
X101910000Y-40380000D01*
X101910000Y-46620000D02*
X101910000Y-44540000D01*
X101950000Y-42460000D02*
X101950000Y-40369000D01*
X101950000Y-46631000D02*
X101950000Y-44540000D01*
X101990000Y-42460000D02*
X101990000Y-40360000D01*
X101990000Y-46640000D02*
X101990000Y-44540000D01*
X102030000Y-42460000D02*
X102030000Y-40350000D01*
X102030000Y-46650000D02*
X102030000Y-44540000D01*
X102070000Y-42460000D02*
X102070000Y-40341000D01*
X102070000Y-46659000D02*
X102070000Y-44540000D01*
X102110000Y-42460000D02*
X102110000Y-40333000D01*
X102110000Y-46667000D02*
X102110000Y-44540000D01*
X102150000Y-42460000D02*
X102150000Y-40326000D01*
X102150000Y-46674000D02*
X102150000Y-44540000D01*
X102190000Y-42460000D02*
X102190000Y-40318000D01*
X102190000Y-46682000D02*
X102190000Y-44540000D01*
X102230000Y-42460000D02*
X102230000Y-40312000D01*
X102230000Y-46688000D02*
X102230000Y-44540000D01*
X102270000Y-42460000D02*
X102270000Y-40305000D01*
X102270000Y-46695000D02*
X102270000Y-44540000D01*
X102310000Y-42460000D02*
X102310000Y-40300000D01*
X102310000Y-46700000D02*
X102310000Y-44540000D01*
X102350000Y-42460000D02*
X102350000Y-40295000D01*
X102350000Y-46705000D02*
X102350000Y-44540000D01*
X102390000Y-42460000D02*
X102390000Y-40290000D01*
X102390000Y-46710000D02*
X102390000Y-44540000D01*
X102430000Y-42460000D02*
X102430000Y-40286000D01*
X102430000Y-46714000D02*
X102430000Y-44540000D01*
X102470000Y-42460000D02*
X102470000Y-40282000D01*
X102470000Y-46718000D02*
X102470000Y-44540000D01*
X102510000Y-42460000D02*
X102510000Y-40279000D01*
X102510000Y-46721000D02*
X102510000Y-44540000D01*
X102550000Y-46724000D02*
X102550000Y-40276000D01*
X102590000Y-46726000D02*
X102590000Y-40274000D01*
X102630000Y-46728000D02*
X102630000Y-40272000D01*
X102670000Y-46729000D02*
X102670000Y-40271000D01*
X102710000Y-46730000D02*
X102710000Y-40270000D01*
X102750000Y-46730000D02*
X102750000Y-40270000D01*
X105935241Y-45654000D02*
X105935241Y-45024000D01*
X106250241Y-45339000D02*
X105620241Y-45339000D01*
X106020000Y-43500000D02*
G75*
G02*
X99480000Y-43500000I-3270000J0D01*
G01*
X99480000Y-43500000D02*
G75*
G02*
X106020000Y-43500000I3270000J0D01*
G01*
%TO.C,C4*%
X103761252Y-49265000D02*
X103238748Y-49265000D01*
X103761252Y-50735000D02*
X103238748Y-50735000D01*
%TO.C,C3*%
X89261252Y-49765000D02*
X88738748Y-49765000D01*
X89261252Y-51235000D02*
X88738748Y-51235000D01*
%TO.C,R5*%
X90314564Y-44765000D02*
X89860436Y-44765000D01*
X90314564Y-46235000D02*
X89860436Y-46235000D01*
%TO.C,R11*%
X57265000Y-62227064D02*
X57265000Y-61772936D01*
X58735000Y-62227064D02*
X58735000Y-61772936D01*
%TO.C,R4*%
X78265000Y-63727064D02*
X78265000Y-63272936D01*
X79735000Y-63727064D02*
X79735000Y-63272936D01*
%TO.C,C5*%
X118723752Y-49265000D02*
X118201248Y-49265000D01*
X118723752Y-50735000D02*
X118201248Y-50735000D01*
%TO.C,R7*%
X109727064Y-59265000D02*
X109272936Y-59265000D01*
X109727064Y-60735000D02*
X109272936Y-60735000D01*
%TO.C,U1*%
X66965000Y-53860000D02*
X66965000Y-64140000D01*
X66965000Y-64140000D02*
X72035000Y-64140000D01*
X68500000Y-53860000D02*
X66965000Y-53860000D01*
X72035000Y-53860000D02*
X70500000Y-53860000D01*
X72035000Y-64140000D02*
X72035000Y-53860000D01*
X63265000Y-53800000D02*
X75735000Y-53800000D01*
X75735000Y-64200000D01*
X63265000Y-64200000D01*
X63265000Y-53800000D01*
X70500000Y-53860000D02*
G75*
G02*
X68500000Y-53860000I-1000000J0D01*
G01*
%TO.C,C2*%
X70765000Y-50238748D02*
X70765000Y-50761252D01*
X72235000Y-50238748D02*
X72235000Y-50761252D01*
%TO.C,C6*%
X77649759Y-67361000D02*
X78279759Y-67361000D01*
X77964759Y-67046000D02*
X77964759Y-67676000D01*
X81150000Y-65970000D02*
X81150000Y-72430000D01*
X81190000Y-65970000D02*
X81190000Y-72430000D01*
X81230000Y-65971000D02*
X81230000Y-72429000D01*
X81270000Y-65972000D02*
X81270000Y-72428000D01*
X81310000Y-65974000D02*
X81310000Y-72426000D01*
X81350000Y-65976000D02*
X81350000Y-72424000D01*
X81390000Y-65979000D02*
X81390000Y-68160000D01*
X81390000Y-70240000D02*
X81390000Y-72421000D01*
X81430000Y-65982000D02*
X81430000Y-68160000D01*
X81430000Y-70240000D02*
X81430000Y-72418000D01*
X81470000Y-65986000D02*
X81470000Y-68160000D01*
X81470000Y-70240000D02*
X81470000Y-72414000D01*
X81510000Y-65990000D02*
X81510000Y-68160000D01*
X81510000Y-70240000D02*
X81510000Y-72410000D01*
X81550000Y-65995000D02*
X81550000Y-68160000D01*
X81550000Y-70240000D02*
X81550000Y-72405000D01*
X81590000Y-66000000D02*
X81590000Y-68160000D01*
X81590000Y-70240000D02*
X81590000Y-72400000D01*
X81630000Y-66005000D02*
X81630000Y-68160000D01*
X81630000Y-70240000D02*
X81630000Y-72395000D01*
X81670000Y-66012000D02*
X81670000Y-68160000D01*
X81670000Y-70240000D02*
X81670000Y-72388000D01*
X81710000Y-66018000D02*
X81710000Y-68160000D01*
X81710000Y-70240000D02*
X81710000Y-72382000D01*
X81750000Y-66026000D02*
X81750000Y-68160000D01*
X81750000Y-70240000D02*
X81750000Y-72374000D01*
X81790000Y-66033000D02*
X81790000Y-68160000D01*
X81790000Y-70240000D02*
X81790000Y-72367000D01*
X81830000Y-66041000D02*
X81830000Y-68160000D01*
X81830000Y-70240000D02*
X81830000Y-72359000D01*
X81870000Y-66050000D02*
X81870000Y-68160000D01*
X81870000Y-70240000D02*
X81870000Y-72350000D01*
X81910000Y-66060000D02*
X81910000Y-68160000D01*
X81910000Y-70240000D02*
X81910000Y-72340000D01*
X81950000Y-66069000D02*
X81950000Y-68160000D01*
X81950000Y-70240000D02*
X81950000Y-72331000D01*
X81990000Y-66080000D02*
X81990000Y-68160000D01*
X81990000Y-70240000D02*
X81990000Y-72320000D01*
X82030000Y-66091000D02*
X82030000Y-68160000D01*
X82030000Y-70240000D02*
X82030000Y-72309000D01*
X82070000Y-66102000D02*
X82070000Y-68160000D01*
X82070000Y-70240000D02*
X82070000Y-72298000D01*
X82110000Y-66114000D02*
X82110000Y-68160000D01*
X82110000Y-70240000D02*
X82110000Y-72286000D01*
X82150000Y-66127000D02*
X82150000Y-68160000D01*
X82150000Y-70240000D02*
X82150000Y-72273000D01*
X82190000Y-66140000D02*
X82190000Y-68160000D01*
X82190000Y-70240000D02*
X82190000Y-72260000D01*
X82230000Y-66153000D02*
X82230000Y-68160000D01*
X82230000Y-70240000D02*
X82230000Y-72247000D01*
X82270000Y-66168000D02*
X82270000Y-68160000D01*
X82270000Y-70240000D02*
X82270000Y-72232000D01*
X82310000Y-66183000D02*
X82310000Y-68160000D01*
X82310000Y-70240000D02*
X82310000Y-72217000D01*
X82350000Y-66198000D02*
X82350000Y-68160000D01*
X82350000Y-70240000D02*
X82350000Y-72202000D01*
X82390000Y-66214000D02*
X82390000Y-68160000D01*
X82390000Y-70240000D02*
X82390000Y-72186000D01*
X82430000Y-66231000D02*
X82430000Y-68160000D01*
X82430000Y-70240000D02*
X82430000Y-72169000D01*
X82470000Y-66248000D02*
X82470000Y-68160000D01*
X82470000Y-70240000D02*
X82470000Y-72152000D01*
X82510000Y-66266000D02*
X82510000Y-68160000D01*
X82510000Y-70240000D02*
X82510000Y-72134000D01*
X82550000Y-66285000D02*
X82550000Y-68160000D01*
X82550000Y-70240000D02*
X82550000Y-72115000D01*
X82590000Y-66304000D02*
X82590000Y-68160000D01*
X82590000Y-70240000D02*
X82590000Y-72096000D01*
X82630000Y-66324000D02*
X82630000Y-68160000D01*
X82630000Y-70240000D02*
X82630000Y-72076000D01*
X82670000Y-66345000D02*
X82670000Y-68160000D01*
X82670000Y-70240000D02*
X82670000Y-72055000D01*
X82710000Y-66366000D02*
X82710000Y-68160000D01*
X82710000Y-70240000D02*
X82710000Y-72034000D01*
X82750000Y-66388000D02*
X82750000Y-68160000D01*
X82750000Y-70240000D02*
X82750000Y-72012000D01*
X82790000Y-66411000D02*
X82790000Y-68160000D01*
X82790000Y-70240000D02*
X82790000Y-71989000D01*
X82830000Y-66435000D02*
X82830000Y-68160000D01*
X82830000Y-70240000D02*
X82830000Y-71965000D01*
X82870000Y-66459000D02*
X82870000Y-68160000D01*
X82870000Y-70240000D02*
X82870000Y-71941000D01*
X82910000Y-66484000D02*
X82910000Y-68160000D01*
X82910000Y-70240000D02*
X82910000Y-71916000D01*
X82950000Y-66510000D02*
X82950000Y-68160000D01*
X82950000Y-70240000D02*
X82950000Y-71890000D01*
X82990000Y-66537000D02*
X82990000Y-68160000D01*
X82990000Y-70240000D02*
X82990000Y-71863000D01*
X83030000Y-66564000D02*
X83030000Y-68160000D01*
X83030000Y-70240000D02*
X83030000Y-71836000D01*
X83070000Y-66593000D02*
X83070000Y-68160000D01*
X83070000Y-70240000D02*
X83070000Y-71807000D01*
X83110000Y-66623000D02*
X83110000Y-68160000D01*
X83110000Y-70240000D02*
X83110000Y-71777000D01*
X83150000Y-66653000D02*
X83150000Y-68160000D01*
X83150000Y-70240000D02*
X83150000Y-71747000D01*
X83190000Y-66684000D02*
X83190000Y-68160000D01*
X83190000Y-70240000D02*
X83190000Y-71716000D01*
X83230000Y-66717000D02*
X83230000Y-68160000D01*
X83230000Y-70240000D02*
X83230000Y-71683000D01*
X83270000Y-66750000D02*
X83270000Y-68160000D01*
X83270000Y-70240000D02*
X83270000Y-71650000D01*
X83310000Y-66785000D02*
X83310000Y-68160000D01*
X83310000Y-70240000D02*
X83310000Y-71615000D01*
X83350000Y-66821000D02*
X83350000Y-68160000D01*
X83350000Y-70240000D02*
X83350000Y-71579000D01*
X83390000Y-66858000D02*
X83390000Y-68160000D01*
X83390000Y-70240000D02*
X83390000Y-71542000D01*
X83430000Y-66896000D02*
X83430000Y-68160000D01*
X83430000Y-70240000D02*
X83430000Y-71504000D01*
X83470000Y-66936000D02*
X83470000Y-71464000D01*
X83510000Y-66977000D02*
X83510000Y-71423000D01*
X83550000Y-67019000D02*
X83550000Y-71381000D01*
X83590000Y-67063000D02*
X83590000Y-71337000D01*
X83630000Y-67109000D02*
X83630000Y-71291000D01*
X83670000Y-67156000D02*
X83670000Y-71244000D01*
X83710000Y-67205000D02*
X83710000Y-71195000D01*
X83750000Y-67257000D02*
X83750000Y-71143000D01*
X83790000Y-67310000D02*
X83790000Y-71090000D01*
X83830000Y-67366000D02*
X83830000Y-71034000D01*
X83870000Y-67425000D02*
X83870000Y-70975000D01*
X83910000Y-67486000D02*
X83910000Y-70914000D01*
X83950000Y-67551000D02*
X83950000Y-70849000D01*
X83990000Y-67619000D02*
X83990000Y-70781000D01*
X84030000Y-67691000D02*
X84030000Y-70709000D01*
X84070000Y-67768000D02*
X84070000Y-70632000D01*
X84110000Y-67850000D02*
X84110000Y-70550000D01*
X84150000Y-67939000D02*
X84150000Y-70461000D01*
X84190000Y-68035000D02*
X84190000Y-70365000D01*
X84230000Y-68142000D02*
X84230000Y-70258000D01*
X84270000Y-68261000D02*
X84270000Y-70139000D01*
X84310000Y-68399000D02*
X84310000Y-70001000D01*
X84350000Y-68567000D02*
X84350000Y-69833000D01*
X84390000Y-68798000D02*
X84390000Y-69602000D01*
X84420000Y-69200000D02*
G75*
G02*
X77880000Y-69200000I-3270000J0D01*
G01*
X77880000Y-69200000D02*
G75*
G02*
X84420000Y-69200000I3270000J0D01*
G01*
%TO.C,R1*%
X79227064Y-55265000D02*
X78772936Y-55265000D01*
X79227064Y-56735000D02*
X78772936Y-56735000D01*
%TO.C,T1*%
X63640000Y-66520000D02*
X73054000Y-66520000D01*
X63640000Y-72840000D02*
X63640000Y-66520000D01*
X73646000Y-66520000D02*
X75360000Y-66520000D01*
X75360000Y-66520000D02*
X75360000Y-72840000D01*
X75360000Y-72840000D02*
X63640000Y-72840000D01*
X73350000Y-66520000D02*
X73010000Y-66050000D01*
X73690000Y-66050000D01*
X73350000Y-66520000D01*
G36*
X73350000Y-66520000D02*
G01*
X73010000Y-66050000D01*
X73690000Y-66050000D01*
X73350000Y-66520000D01*
G37*
%TO.C,U2*%
X84350000Y-53360000D02*
X84350000Y-63640000D01*
X84350000Y-63640000D02*
X89650000Y-63640000D01*
X86000000Y-53360000D02*
X84350000Y-53360000D01*
X89650000Y-53360000D02*
X88000000Y-53360000D01*
X89650000Y-63640000D02*
X89650000Y-53360000D01*
X88000000Y-53360000D02*
G75*
G02*
X86000000Y-53360000I-1000000J0D01*
G01*
%TO.C,R12*%
X57265000Y-54272936D02*
X57265000Y-54727064D01*
X58735000Y-54272936D02*
X58735000Y-54727064D01*
%TD*%
M02*
