%TF.GenerationSoftware,KiCad,Pcbnew,10.0.3*%
%TF.CreationDate,2026-06-10T12:44:38+02:00*%
%TF.ProjectId,SPW_PCB_2,5350575f-5043-4425-9f32-2e6b69636164,rev?*%
%TF.SameCoordinates,Original*%
%TF.FileFunction,Soldermask,Bot*%
%TF.FilePolarity,Negative*%
%FSLAX46Y46*%
G04 Gerber Fmt 4.6, Leading zero omitted, Abs format (unit mm)*
G04 Created by KiCad (PCBNEW 10.0.3) date 2026-06-10 12:44:38*
%MOMM*%
%LPD*%
G01*
G04 APERTURE LIST*
G04 Aperture macros list*
%AMRoundRect*
0 Rectangle with rounded corners*
0 $1 Rounding radius*
0 $2 $3 $4 $5 $6 $7 $8 $9 X,Y pos of 4 corners*
0 Add a 4 corners polygon primitive as box body*
4,1,4,$2,$3,$4,$5,$6,$7,$8,$9,$2,$3,0*
0 Add four circle primitives for the rounded corners*
1,1,$1+$1,$2,$3*
1,1,$1+$1,$4,$5*
1,1,$1+$1,$6,$7*
1,1,$1+$1,$8,$9*
0 Add four rect primitives between the rounded corners*
20,1,$1+$1,$2,$3,$4,$5,0*
20,1,$1+$1,$4,$5,$6,$7,0*
20,1,$1+$1,$6,$7,$8,$9,0*
20,1,$1+$1,$8,$9,$2,$3,0*%
G04 Aperture macros list end*
%ADD10R,2.000000X1.905000*%
%ADD11O,2.000000X1.905000*%
%ADD12C,1.200000*%
%ADD13RoundRect,0.250000X1.050000X-1.050000X1.050000X1.050000X-1.050000X1.050000X-1.050000X-1.050000X0*%
%ADD14C,2.600000*%
%ADD15RoundRect,0.250000X-0.550000X-0.550000X0.550000X-0.550000X0.550000X0.550000X-0.550000X0.550000X0*%
%ADD16C,1.600000*%
%ADD17RoundRect,0.250000X-1.050000X-1.050000X1.050000X-1.050000X1.050000X1.050000X-1.050000X1.050000X0*%
%ADD18C,4.300000*%
%ADD19RoundRect,0.250000X-1.050000X1.050000X-1.050000X-1.050000X1.050000X-1.050000X1.050000X1.050000X0*%
%ADD20RoundRect,0.250000X0.550000X0.550000X-0.550000X0.550000X-0.550000X-0.550000X0.550000X-0.550000X0*%
%ADD21RoundRect,0.250000X-0.550000X0.550000X-0.550000X-0.550000X0.550000X-0.550000X0.550000X0.550000X0*%
G04 APERTURE END LIST*
D10*
%TO.C,U5*%
X89100000Y-74100000D03*
D11*
X89100000Y-71560000D03*
X89100000Y-69020000D03*
%TD*%
D12*
%TO.C,RV1*%
X96002500Y-43387500D03*
X93462500Y-48467500D03*
X96002500Y-56087500D03*
%TD*%
D13*
%TO.C,J3*%
X130000000Y-61580000D03*
D14*
X130000000Y-56500000D03*
%TD*%
D15*
%TO.C,U3*%
X98690000Y-54190000D03*
D16*
X98690000Y-56730000D03*
X98690000Y-59270000D03*
X98690000Y-61810000D03*
X106310000Y-61810000D03*
X106310000Y-59270000D03*
X106310000Y-56730000D03*
X106310000Y-54190000D03*
%TD*%
D17*
%TO.C,J2*%
X97755000Y-71500000D03*
D14*
X102835000Y-71500000D03*
%TD*%
D15*
%TO.C,U4*%
X113380000Y-54690000D03*
D16*
X113380000Y-57230000D03*
X113380000Y-59770000D03*
X113380000Y-62310000D03*
X121000000Y-62310000D03*
X121000000Y-59770000D03*
X121000000Y-57230000D03*
X121000000Y-54690000D03*
%TD*%
D18*
%TO.C,REF\u002A\u002A*%
X48500000Y-45000000D03*
%TD*%
%TO.C,REF\u002A\u002A*%
X132000000Y-44000000D03*
%TD*%
D19*
%TO.C,J1*%
X49700000Y-55300000D03*
D14*
X49700000Y-60380000D03*
%TD*%
D15*
%TO.C,C7*%
X108317621Y-68000000D03*
D16*
X110817621Y-68000000D03*
%TD*%
D20*
%TO.C,C11*%
X104000000Y-43500000D03*
D16*
X101500000Y-43500000D03*
%TD*%
D15*
%TO.C,C6*%
X79900000Y-69200000D03*
D16*
X82400000Y-69200000D03*
%TD*%
D21*
%TO.C,T1*%
X73350000Y-68305000D03*
D16*
X70810000Y-68305000D03*
X68270000Y-68305000D03*
X65730000Y-68305000D03*
%TD*%
D15*
%TO.C,U2*%
X83190000Y-54690000D03*
D16*
X83190000Y-57230000D03*
X83190000Y-59770000D03*
X83190000Y-62310000D03*
X90810000Y-62310000D03*
X90810000Y-59770000D03*
X90810000Y-57230000D03*
X90810000Y-54690000D03*
%TD*%
M02*
