M48
; DRILL file KiCad 10.0.3 date 2026-06-10T12:44:44
; FORMAT={-:-/ absolute / metric / decimal}
; #@! TF.CreationDate,2026-06-10T12:44:44+02:00
; #@! TF.GenerationSoftware,Kicad,Pcbnew,10.0.3
; #@! TF.FileFunction,MixedPlating,1,2
FMAT,2
METRIC
; #@! TA.AperFunction,Plated,PTH,ViaDrill
T1C0.300
; #@! TA.AperFunction,Plated,PTH,ComponentDrill
T2C0.800
; #@! TA.AperFunction,Plated,PTH,ComponentDrill
T3C1.000
; #@! TA.AperFunction,Plated,PTH,ComponentDrill
T4C1.100
; #@! TA.AperFunction,Plated,PTH,ComponentDrill
T5C1.300
; #@! TA.AperFunction,NonPlated,NPTH,ComponentDrill
T6C4.300
%
G90
G05
T1
X58.0Y-52.0
X58.0Y-64.5
X62.5Y-63.0
X67.5Y-53.0
X72.0Y-53.0
X74.5Y-65.0
X78.0Y-66.0
X86.5Y-50.5
X101.0Y-49.0
X106.5Y-50.0
X116.0Y-50.0
X125.0Y-48.5
X130.0Y-48.5
X133.5Y-48.5
T2
X79.9Y-69.2
X82.4Y-69.2
X83.19Y-54.69
X83.19Y-57.23
X83.19Y-59.77
X83.19Y-62.31
X90.81Y-54.69
X90.81Y-57.23
X90.81Y-59.77
X90.81Y-62.31
X93.462Y-48.468
X96.002Y-43.387
X96.002Y-56.087
X98.69Y-54.19
X98.69Y-56.73
X98.69Y-59.27
X98.69Y-61.81
X101.5Y-43.5
X104.0Y-43.5
X106.31Y-54.19
X106.31Y-56.73
X106.31Y-59.27
X106.31Y-61.81
X108.318Y-68.0
X110.818Y-68.0
X113.38Y-54.69
X113.38Y-57.23
X113.38Y-59.77
X113.38Y-62.31
X121.0Y-54.69
X121.0Y-57.23
X121.0Y-59.77
X121.0Y-62.31
T3
X65.73Y-68.305
X68.27Y-68.305
X70.81Y-68.305
X73.35Y-68.305
T4
X89.1Y-69.02
X89.1Y-71.56
X89.1Y-74.1
T5
X49.7Y-55.3
X49.7Y-60.38
X97.755Y-71.5
X102.835Y-71.5
X130.0Y-56.5
X130.0Y-61.58
T6
X48.5Y-45.0
X132.0Y-44.0
M30
