%TF.GenerationSoftware,KiCad,Pcbnew,10.0.3*%
%TF.CreationDate,2026-06-10T12:44:38+02:00*%
%TF.ProjectId,SPW_PCB_2,5350575f-5043-4425-9f32-2e6b69636164,rev?*%
%TF.SameCoordinates,Original*%
%TF.FileFunction,Copper,L1,Top*%
%TF.FilePolarity,Positive*%
%FSLAX46Y46*%
G04 Gerber Fmt 4.6, Leading zero omitted, Abs format (unit mm)*
G04 Created by KiCad (PCBNEW 10.0.3) date 2026-06-10 12:44:38*
%MOMM*%
%LPD*%
G01*
G04 APERTURE LIST*
G04 Aperture macros list*
%AMRoundRect*
0 Rectangle with rounded corners*
0 $1 Rounding radius*
0 $2 $3 $4 $5 $6 $7 $8 $9 X,Y pos of 4 corners*
0 Add a 4 corners polygon primitive as box body*
4,1,4,$2,$3,$4,$5,$6,$7,$8,$9,$2,$3,0*
0 Add four circle primitives for the rounded corners*
1,1,$1+$1,$2,$3*
1,1,$1+$1,$4,$5*
1,1,$1+$1,$6,$7*
1,1,$1+$1,$8,$9*
0 Add four rect primitives between the rounded corners*
20,1,$1+$1,$2,$3,$4,$5,0*
20,1,$1+$1,$4,$5,$6,$7,0*
20,1,$1+$1,$6,$7,$8,$9,0*
20,1,$1+$1,$8,$9,$2,$3,0*%
G04 Aperture macros list end*
%ADD10C,0.300000*%
%TA.AperFunction,NonConductor*%
%ADD11C,0.300000*%
%TD*%
%TA.AperFunction,SMDPad,CuDef*%
%ADD12RoundRect,0.250000X-0.475000X0.337500X-0.475000X-0.337500X0.475000X-0.337500X0.475000X0.337500X0*%
%TD*%
%TA.AperFunction,SMDPad,CuDef*%
%ADD13RoundRect,0.250000X0.475000X-0.337500X0.475000X0.337500X-0.475000X0.337500X-0.475000X-0.337500X0*%
%TD*%
%TA.AperFunction,ComponentPad*%
%ADD14R,2.000000X1.905000*%
%TD*%
%TA.AperFunction,ComponentPad*%
%ADD15O,2.000000X1.905000*%
%TD*%
%TA.AperFunction,ComponentPad*%
%ADD16C,1.200000*%
%TD*%
%TA.AperFunction,SMDPad,CuDef*%
%ADD17RoundRect,0.250000X0.262500X0.450000X-0.262500X0.450000X-0.262500X-0.450000X0.262500X-0.450000X0*%
%TD*%
%TA.AperFunction,ComponentPad*%
%ADD18RoundRect,0.250000X1.050000X-1.050000X1.050000X1.050000X-1.050000X1.050000X-1.050000X-1.050000X0*%
%TD*%
%TA.AperFunction,ComponentPad*%
%ADD19C,2.600000*%
%TD*%
%TA.AperFunction,ComponentPad*%
%ADD20RoundRect,0.250000X-0.550000X-0.550000X0.550000X-0.550000X0.550000X0.550000X-0.550000X0.550000X0*%
%TD*%
%TA.AperFunction,ComponentPad*%
%ADD21C,1.600000*%
%TD*%
%TA.AperFunction,ComponentPad*%
%ADD22RoundRect,0.250000X-1.050000X-1.050000X1.050000X-1.050000X1.050000X1.050000X-1.050000X1.050000X0*%
%TD*%
%TA.AperFunction,SMDPad,CuDef*%
%ADD23RoundRect,0.250000X-0.262500X-0.450000X0.262500X-0.450000X0.262500X0.450000X-0.262500X0.450000X0*%
%TD*%
%TA.AperFunction,ComponentPad*%
%ADD24RoundRect,0.250000X-1.050000X1.050000X-1.050000X-1.050000X1.050000X-1.050000X1.050000X1.050000X0*%
%TD*%
%TA.AperFunction,ComponentPad*%
%ADD25RoundRect,0.250000X0.550000X0.550000X-0.550000X0.550000X-0.550000X-0.550000X0.550000X-0.550000X0*%
%TD*%
%TA.AperFunction,SMDPad,CuDef*%
%ADD26RoundRect,0.250000X0.337500X0.475000X-0.337500X0.475000X-0.337500X-0.475000X0.337500X-0.475000X0*%
%TD*%
%TA.AperFunction,SMDPad,CuDef*%
%ADD27RoundRect,0.250000X0.450000X-0.262500X0.450000X0.262500X-0.450000X0.262500X-0.450000X-0.262500X0*%
%TD*%
%TA.AperFunction,SMDPad,CuDef*%
%ADD28RoundRect,0.250000X-1.300000X-0.550000X1.300000X-0.550000X1.300000X0.550000X-1.300000X0.550000X0*%
%TD*%
%TA.AperFunction,ComponentPad*%
%ADD29RoundRect,0.250000X-0.550000X0.550000X-0.550000X-0.550000X0.550000X-0.550000X0.550000X0.550000X0*%
%TD*%
%TA.AperFunction,SMDPad,CuDef*%
%ADD30RoundRect,0.250000X-0.450000X0.262500X-0.450000X-0.262500X0.450000X-0.262500X0.450000X0.262500X0*%
%TD*%
%TA.AperFunction,ViaPad*%
%ADD31C,0.800000*%
%TD*%
%TA.AperFunction,Conductor*%
%ADD32C,1.000000*%
%TD*%
%TA.AperFunction,Conductor*%
%ADD33C,0.800000*%
%TD*%
G04 APERTURE END LIST*
D10*
D11*
X48554510Y-51300828D02*
X48554510Y-49800828D01*
X49268796Y-51300828D02*
X49268796Y-49800828D01*
X49268796Y-49800828D02*
X50125939Y-51300828D01*
X50125939Y-51300828D02*
X50125939Y-49800828D01*
X50840225Y-50729400D02*
X51983083Y-50729400D01*
X51411654Y-51300828D02*
X51411654Y-50157971D01*
D10*
D11*
X49054510Y-65800828D02*
X49054510Y-64300828D01*
X49768796Y-65800828D02*
X49768796Y-64300828D01*
X49768796Y-64300828D02*
X50625939Y-65800828D01*
X50625939Y-65800828D02*
X50625939Y-64300828D01*
X51340225Y-65229400D02*
X52483083Y-65229400D01*
D10*
D11*
X90940225Y-76772257D02*
X90797368Y-76700828D01*
X90797368Y-76700828D02*
X90583082Y-76700828D01*
X90583082Y-76700828D02*
X90368796Y-76772257D01*
X90368796Y-76772257D02*
X90225939Y-76915114D01*
X90225939Y-76915114D02*
X90154510Y-77057971D01*
X90154510Y-77057971D02*
X90083082Y-77343685D01*
X90083082Y-77343685D02*
X90083082Y-77557971D01*
X90083082Y-77557971D02*
X90154510Y-77843685D01*
X90154510Y-77843685D02*
X90225939Y-77986542D01*
X90225939Y-77986542D02*
X90368796Y-78129400D01*
X90368796Y-78129400D02*
X90583082Y-78200828D01*
X90583082Y-78200828D02*
X90725939Y-78200828D01*
X90725939Y-78200828D02*
X90940225Y-78129400D01*
X90940225Y-78129400D02*
X91011653Y-78057971D01*
X91011653Y-78057971D02*
X91011653Y-77557971D01*
X91011653Y-77557971D02*
X90725939Y-77557971D01*
X91654510Y-78200828D02*
X91654510Y-76700828D01*
X91654510Y-76700828D02*
X92511653Y-78200828D01*
X92511653Y-78200828D02*
X92511653Y-76700828D01*
X93225939Y-78200828D02*
X93225939Y-76700828D01*
X93225939Y-76700828D02*
X93583082Y-76700828D01*
X93583082Y-76700828D02*
X93797368Y-76772257D01*
X93797368Y-76772257D02*
X93940225Y-76915114D01*
X93940225Y-76915114D02*
X94011654Y-77057971D01*
X94011654Y-77057971D02*
X94083082Y-77343685D01*
X94083082Y-77343685D02*
X94083082Y-77557971D01*
X94083082Y-77557971D02*
X94011654Y-77843685D01*
X94011654Y-77843685D02*
X93940225Y-77986542D01*
X93940225Y-77986542D02*
X93797368Y-78129400D01*
X93797368Y-78129400D02*
X93583082Y-78200828D01*
X93583082Y-78200828D02*
X93225939Y-78200828D01*
D10*
D11*
X108068796Y-76400828D02*
X107354510Y-76400828D01*
X107354510Y-76400828D02*
X107283082Y-77115114D01*
X107283082Y-77115114D02*
X107354510Y-77043685D01*
X107354510Y-77043685D02*
X107497368Y-76972257D01*
X107497368Y-76972257D02*
X107854510Y-76972257D01*
X107854510Y-76972257D02*
X107997368Y-77043685D01*
X107997368Y-77043685D02*
X108068796Y-77115114D01*
X108068796Y-77115114D02*
X108140225Y-77257971D01*
X108140225Y-77257971D02*
X108140225Y-77615114D01*
X108140225Y-77615114D02*
X108068796Y-77757971D01*
X108068796Y-77757971D02*
X107997368Y-77829400D01*
X107997368Y-77829400D02*
X107854510Y-77900828D01*
X107854510Y-77900828D02*
X107497368Y-77900828D01*
X107497368Y-77900828D02*
X107354510Y-77829400D01*
X107354510Y-77829400D02*
X107283082Y-77757971D01*
X108568796Y-76400828D02*
X109068796Y-77900828D01*
X109068796Y-77900828D02*
X109568796Y-76400828D01*
D10*
D11*
X135872257Y-54659774D02*
X135800828Y-54802632D01*
X135800828Y-54802632D02*
X135800828Y-55016917D01*
X135800828Y-55016917D02*
X135872257Y-55231203D01*
X135872257Y-55231203D02*
X136015114Y-55374060D01*
X136015114Y-55374060D02*
X136157971Y-55445489D01*
X136157971Y-55445489D02*
X136443685Y-55516917D01*
X136443685Y-55516917D02*
X136657971Y-55516917D01*
X136657971Y-55516917D02*
X136943685Y-55445489D01*
X136943685Y-55445489D02*
X137086542Y-55374060D01*
X137086542Y-55374060D02*
X137229400Y-55231203D01*
X137229400Y-55231203D02*
X137300828Y-55016917D01*
X137300828Y-55016917D02*
X137300828Y-54874060D01*
X137300828Y-54874060D02*
X137229400Y-54659774D01*
X137229400Y-54659774D02*
X137157971Y-54588346D01*
X137157971Y-54588346D02*
X136657971Y-54588346D01*
X136657971Y-54588346D02*
X136657971Y-54874060D01*
X137300828Y-53945489D02*
X135800828Y-53945489D01*
X135800828Y-53945489D02*
X137300828Y-53088346D01*
X137300828Y-53088346D02*
X135800828Y-53088346D01*
X137300828Y-52374060D02*
X135800828Y-52374060D01*
X135800828Y-52374060D02*
X135800828Y-52016917D01*
X135800828Y-52016917D02*
X135872257Y-51802631D01*
X135872257Y-51802631D02*
X136015114Y-51659774D01*
X136015114Y-51659774D02*
X136157971Y-51588345D01*
X136157971Y-51588345D02*
X136443685Y-51516917D01*
X136443685Y-51516917D02*
X136657971Y-51516917D01*
X136657971Y-51516917D02*
X136943685Y-51588345D01*
X136943685Y-51588345D02*
X137086542Y-51659774D01*
X137086542Y-51659774D02*
X137229400Y-51802631D01*
X137229400Y-51802631D02*
X137300828Y-52016917D01*
X137300828Y-52016917D02*
X137300828Y-52374060D01*
D10*
D11*
X135800828Y-63659774D02*
X135800828Y-63374060D01*
X135800828Y-63374060D02*
X135872257Y-63231203D01*
X135872257Y-63231203D02*
X136015114Y-63088346D01*
X136015114Y-63088346D02*
X136300828Y-63016917D01*
X136300828Y-63016917D02*
X136800828Y-63016917D01*
X136800828Y-63016917D02*
X137086542Y-63088346D01*
X137086542Y-63088346D02*
X137229400Y-63231203D01*
X137229400Y-63231203D02*
X137300828Y-63374060D01*
X137300828Y-63374060D02*
X137300828Y-63659774D01*
X137300828Y-63659774D02*
X137229400Y-63802632D01*
X137229400Y-63802632D02*
X137086542Y-63945489D01*
X137086542Y-63945489D02*
X136800828Y-64016917D01*
X136800828Y-64016917D02*
X136300828Y-64016917D01*
X136300828Y-64016917D02*
X136015114Y-63945489D01*
X136015114Y-63945489D02*
X135872257Y-63802632D01*
X135872257Y-63802632D02*
X135800828Y-63659774D01*
X136300828Y-61731203D02*
X137300828Y-61731203D01*
X136300828Y-62374060D02*
X137086542Y-62374060D01*
X137086542Y-62374060D02*
X137229400Y-62302631D01*
X137229400Y-62302631D02*
X137300828Y-62159774D01*
X137300828Y-62159774D02*
X137300828Y-61945488D01*
X137300828Y-61945488D02*
X137229400Y-61802631D01*
X137229400Y-61802631D02*
X137157971Y-61731203D01*
X136300828Y-61231202D02*
X136300828Y-60659774D01*
X135800828Y-61016917D02*
X137086542Y-61016917D01*
X137086542Y-61016917D02*
X137229400Y-60945488D01*
X137229400Y-60945488D02*
X137300828Y-60802631D01*
X137300828Y-60802631D02*
X137300828Y-60659774D01*
D12*
%TO.P,C13,1*%
%TO.N,+5V*%
X93000000Y-67962500D03*
%TO.P,C13,2*%
%TO.N,GND*%
X93000000Y-70037500D03*
%TD*%
D13*
%TO.P,C12,1*%
%TO.N,Net-(J2-Pin_2)*%
X93000000Y-74637500D03*
%TO.P,C12,2*%
%TO.N,GND*%
X93000000Y-72562500D03*
%TD*%
D14*
%TO.P,U5,1,IN_1*%
%TO.N,Net-(J2-Pin_2)*%
X89100000Y-74100000D03*
D15*
%TO.P,U5,2,GND_2*%
%TO.N,GND*%
X89100000Y-71560000D03*
%TO.P,U5,3,OUT_3*%
%TO.N,+5V*%
X89100000Y-69020000D03*
%TD*%
D16*
%TO.P,RV1,3,3_3*%
%TO.N,Net-(R5-Pad1)*%
X96002500Y-43387500D03*
%TO.P,RV1,2,2_2*%
%TO.N,Net-(U3-+)*%
X93462500Y-48467500D03*
%TO.P,RV1,1,1_1*%
%TO.N,Net-(R6-Pad2)*%
X96002500Y-56087500D03*
%TD*%
D17*
%TO.P,R8,1*%
%TO.N,Net-(U4-+)*%
X110412500Y-55500000D03*
%TO.P,R8,2*%
%TO.N,Net-(U3--)*%
X108587500Y-55500000D03*
%TD*%
D18*
%TO.P,J3,1,Pin_1_1*%
%TO.N,Net-(J3-Pin_1)*%
X130000000Y-61580000D03*
D19*
%TO.P,J3,2,Pin_2_2*%
%TO.N,GND*%
X130000000Y-56500000D03*
%TD*%
D20*
%TO.P,U3,1,NC_1*%
%TO.N,unconnected-(U3-NC-Pad1)*%
X98690000Y-54190000D03*
D21*
%TO.P,U3,2,-_2*%
%TO.N,Net-(U3--)*%
X98690000Y-56730000D03*
%TO.P,U3,3,+_3*%
%TO.N,Net-(U3-+)*%
X98690000Y-59270000D03*
%TO.P,U3,4,V-_4*%
%TO.N,GND*%
X98690000Y-61810000D03*
%TO.P,U3,5,NC_5*%
%TO.N,unconnected-(U3-NC-Pad5)*%
X106310000Y-61810000D03*
%TO.P,U3,6*%
%TO.N,Net-(U3--)*%
X106310000Y-59270000D03*
%TO.P,U3,7,V+_7*%
%TO.N,+5V*%
X106310000Y-56730000D03*
%TO.P,U3,8,NC_8*%
%TO.N,unconnected-(U3-NC-Pad8)*%
X106310000Y-54190000D03*
%TD*%
D22*
%TO.P,J2,1,Pin_1_1*%
%TO.N,GND*%
X97755000Y-71500000D03*
D19*
%TO.P,J2,2,Pin_2_2*%
%TO.N,Net-(J2-Pin_2)*%
X102835000Y-71500000D03*
%TD*%
D20*
%TO.P,U4,1,NC_1*%
%TO.N,unconnected-(U4-NC-Pad1)*%
X113380000Y-54690000D03*
D21*
%TO.P,U4,2,-_2*%
%TO.N,Net-(U4--)*%
X113380000Y-57230000D03*
%TO.P,U4,3,+_3*%
%TO.N,Net-(U4-+)*%
X113380000Y-59770000D03*
%TO.P,U4,4,V-_4*%
%TO.N,GND*%
X113380000Y-62310000D03*
%TO.P,U4,5,NC_5*%
%TO.N,unconnected-(U4-NC-Pad5)*%
X121000000Y-62310000D03*
%TO.P,U4,6*%
%TO.N,Net-(J3-Pin_1)*%
X121000000Y-59770000D03*
%TO.P,U4,7,V+_7*%
%TO.N,+5V*%
X121000000Y-57230000D03*
%TO.P,U4,8,NC_8*%
%TO.N,unconnected-(U4-NC-Pad8)*%
X121000000Y-54690000D03*
%TD*%
D17*
%TO.P,R9,1*%
%TO.N,Net-(J3-Pin_1)*%
X113912500Y-50000000D03*
%TO.P,R9,2*%
%TO.N,Net-(U4--)*%
X112087500Y-50000000D03*
%TD*%
%TO.P,R3,1*%
%TO.N,Net-(R3-Pad1)*%
X84912500Y-50500000D03*
%TO.P,R3,2*%
%TO.N,Net-(U2-+)*%
X83087500Y-50500000D03*
%TD*%
D23*
%TO.P,R10,1*%
%TO.N,GND*%
X108087500Y-50000000D03*
%TO.P,R10,2*%
%TO.N,Net-(U4--)*%
X109912500Y-50000000D03*
%TD*%
D13*
%TO.P,C10,1*%
%TO.N,Net-(J3-Pin_1)*%
X133500000Y-52037500D03*
%TO.P,C10,2*%
%TO.N,GND*%
X133500000Y-49962500D03*
%TD*%
D24*
%TO.P,J1,1,Pin_1_1*%
%TO.N,Net-(J1-Pin_1)*%
X49700000Y-55300000D03*
D19*
%TO.P,J1,2,Pin_2_2*%
%TO.N,Net-(J1-Pin_2)*%
X49700000Y-60380000D03*
%TD*%
D17*
%TO.P,R2,1*%
%TO.N,Net-(U2--)*%
X79912500Y-60500000D03*
%TO.P,R2,2*%
%TO.N,Net-(U1-VOUT-)*%
X78087500Y-60500000D03*
%TD*%
D13*
%TO.P,C9,1*%
%TO.N,Net-(J3-Pin_1)*%
X130000000Y-52075000D03*
%TO.P,C9,2*%
%TO.N,GND*%
X130000000Y-50000000D03*
%TD*%
D23*
%TO.P,R6,1*%
%TO.N,GND*%
X94175000Y-61000000D03*
%TO.P,R6,2*%
%TO.N,Net-(R6-Pad2)*%
X96000000Y-61000000D03*
%TD*%
D12*
%TO.P,C1,1*%
%TO.N,+5VA*%
X67500000Y-49500000D03*
%TO.P,C1,2*%
%TO.N,GNDA*%
X67500000Y-51575000D03*
%TD*%
D20*
%TO.P,C7,1*%
%TO.N,+5V*%
X108317621Y-68000000D03*
D21*
%TO.P,C7,2*%
%TO.N,GND*%
X110817621Y-68000000D03*
%TD*%
D13*
%TO.P,C8,1*%
%TO.N,Net-(J3-Pin_1)*%
X125037500Y-52037500D03*
%TO.P,C8,2*%
%TO.N,GND*%
X125037500Y-49962500D03*
%TD*%
D25*
%TO.P,C11,1*%
%TO.N,+5V*%
X104000000Y-43500000D03*
D21*
%TO.P,C11,2*%
%TO.N,GND*%
X101500000Y-43500000D03*
%TD*%
D26*
%TO.P,C4,1*%
%TO.N,+5V*%
X104537500Y-50000000D03*
%TO.P,C4,2*%
%TO.N,GND*%
X102462500Y-50000000D03*
%TD*%
%TO.P,C3,1*%
%TO.N,+5V*%
X90037500Y-50500000D03*
%TO.P,C3,2*%
%TO.N,GND*%
X87962500Y-50500000D03*
%TD*%
D17*
%TO.P,R5,1*%
%TO.N,Net-(R5-Pad1)*%
X91000000Y-45500000D03*
%TO.P,R5,2*%
%TO.N,+5V*%
X89175000Y-45500000D03*
%TD*%
D27*
%TO.P,R11,1*%
%TO.N,GNDA*%
X58000000Y-62912500D03*
%TO.P,R11,2*%
%TO.N,Net-(J1-Pin_2)*%
X58000000Y-61087500D03*
%TD*%
%TO.P,R4,1*%
%TO.N,GND*%
X79000000Y-64412500D03*
%TO.P,R4,2*%
%TO.N,Net-(U2--)*%
X79000000Y-62587500D03*
%TD*%
D26*
%TO.P,C5,1*%
%TO.N,+5V*%
X119500000Y-50000000D03*
%TO.P,C5,2*%
%TO.N,GND*%
X117425000Y-50000000D03*
%TD*%
D17*
%TO.P,R7,1*%
%TO.N,Net-(U4-+)*%
X110412500Y-60000000D03*
%TO.P,R7,2*%
%TO.N,Net-(R3-Pad1)*%
X108587500Y-60000000D03*
%TD*%
D28*
%TO.P,U1,1,VDD1_1*%
%TO.N,+5VA*%
X65055000Y-55190000D03*
%TO.P,U1,2,VIN+_2*%
%TO.N,Net-(J1-Pin_1)*%
X65055000Y-57730000D03*
%TO.P,U1,3,VIN-_3*%
%TO.N,Net-(J1-Pin_2)*%
X65055000Y-60270000D03*
%TO.P,U1,4,GND1_4*%
%TO.N,GNDA*%
X65055000Y-62810000D03*
%TO.P,U1,5,GND2_5*%
%TO.N,GND*%
X73945000Y-62810000D03*
%TO.P,U1,6,VOUT-_6*%
%TO.N,Net-(U1-VOUT-)*%
X73945000Y-60270000D03*
%TO.P,U1,7,VOUT+_7*%
%TO.N,Net-(U1-VOUT+)*%
X73945000Y-57730000D03*
%TO.P,U1,8,VDD2_8*%
%TO.N,+5V*%
X73945000Y-55190000D03*
%TD*%
D12*
%TO.P,C2,1*%
%TO.N,+5V*%
X71500000Y-49462500D03*
%TO.P,C2,2*%
%TO.N,GND*%
X71500000Y-51537500D03*
%TD*%
D20*
%TO.P,C6,1*%
%TO.N,+5V*%
X79900000Y-69200000D03*
D21*
%TO.P,C6,2*%
%TO.N,GND*%
X82400000Y-69200000D03*
%TD*%
D17*
%TO.P,R1,1*%
%TO.N,Net-(U2-+)*%
X79912500Y-56000000D03*
%TO.P,R1,2*%
%TO.N,Net-(U1-VOUT+)*%
X78087500Y-56000000D03*
%TD*%
D29*
%TO.P,T1,1,-Vin_1*%
%TO.N,GND*%
X73350000Y-68305000D03*
D21*
%TO.P,T1,2,+Vin_2*%
%TO.N,+5V*%
X70810000Y-68305000D03*
%TO.P,T1,3,-Vout_3*%
%TO.N,GNDA*%
X68270000Y-68305000D03*
%TO.P,T1,4,+Vout_4*%
%TO.N,+5VA*%
X65730000Y-68305000D03*
%TD*%
D20*
%TO.P,U2,1,NC_1*%
%TO.N,unconnected-(U2-NC-Pad1)*%
X83190000Y-54690000D03*
D21*
%TO.P,U2,2,-_2*%
%TO.N,Net-(U2--)*%
X83190000Y-57230000D03*
%TO.P,U2,3,+_3*%
%TO.N,Net-(U2-+)*%
X83190000Y-59770000D03*
%TO.P,U2,4,V-_4*%
%TO.N,GND*%
X83190000Y-62310000D03*
%TO.P,U2,5,NC_5*%
%TO.N,unconnected-(U2-NC-Pad5)*%
X90810000Y-62310000D03*
%TO.P,U2,6*%
%TO.N,Net-(R3-Pad1)*%
X90810000Y-59770000D03*
%TO.P,U2,7,V+_7*%
%TO.N,+5V*%
X90810000Y-57230000D03*
%TO.P,U2,8,NC_8*%
%TO.N,unconnected-(U2-NC-Pad8)*%
X90810000Y-54690000D03*
%TD*%
D30*
%TO.P,R12,1*%
%TO.N,GNDA*%
X58000000Y-53587500D03*
%TO.P,R12,2*%
%TO.N,Net-(J1-Pin_1)*%
X58000000Y-55412500D03*
%TD*%
D31*
%TO.N,GND*%
X116000000Y-50000000D03*
X101000000Y-49000000D03*
X86500000Y-50500000D03*
X125000000Y-48500000D03*
X72000000Y-53000000D03*
X78000000Y-66000000D03*
X133500000Y-48500000D03*
X130000000Y-48500000D03*
X74500000Y-65000000D03*
X106500000Y-50000000D03*
%TO.N,GNDA*%
X58000000Y-64500000D03*
X67500000Y-53000000D03*
X62500000Y-63000000D03*
X58000000Y-52000000D03*
%TD*%
%TO.N,+5V*%
D32*
X93037500Y-68000000D02*
X93000000Y-67962500D01*
X108317621Y-68000000D02*
X93037500Y-68000000D01*
X90157500Y-67962500D02*
X93000000Y-67962500D01*
X89100000Y-69020000D02*
X90157500Y-67962500D01*
X72310000Y-69805000D02*
X70810000Y-68305000D01*
X79900000Y-69200000D02*
X79295000Y-69805000D01*
X79295000Y-69805000D02*
X72310000Y-69805000D01*
X108280121Y-67962500D02*
X108317621Y-68000000D01*
X87780000Y-67700000D02*
X89100000Y-69020000D01*
X81400000Y-67700000D02*
X87780000Y-67700000D01*
X79900000Y-69200000D02*
X81400000Y-67700000D01*
%TO.N,GND*%
X93000000Y-70557500D02*
X91997500Y-71560000D01*
X93000000Y-70037500D02*
X93000000Y-70557500D01*
X91997500Y-71560000D02*
X93000000Y-72562500D01*
X89100000Y-71560000D02*
X91997500Y-71560000D01*
%TO.N,Net-(J2-Pin_2)*%
X89100000Y-74100000D02*
X92462500Y-74100000D01*
X92462500Y-74100000D02*
X93000000Y-74637500D01*
X99697500Y-74637500D02*
X93000000Y-74637500D01*
X102835000Y-71500000D02*
X99697500Y-74637500D01*
%TO.N,Net-(R5-Pad1)*%
D33*
X93890000Y-45500000D02*
X96002500Y-43387500D01*
X91000000Y-45500000D02*
X93890000Y-45500000D01*
%TO.N,Net-(R6-Pad2)*%
X96002500Y-60997500D02*
X96000000Y-61000000D01*
X96002500Y-56087500D02*
X96002500Y-60997500D01*
%TO.N,Net-(U3-+)*%
X97290000Y-57870000D02*
X98690000Y-59270000D01*
X93462500Y-48467500D02*
X97290000Y-52295000D01*
X97290000Y-52295000D02*
X97290000Y-57870000D01*
%TO.N,Net-(U4-+)*%
D32*
X113380000Y-59770000D02*
X110642500Y-59770000D01*
X110642500Y-59770000D02*
X110412500Y-60000000D01*
X110412500Y-55500000D02*
X110412500Y-60000000D01*
%TO.N,Net-(U3--)*%
D33*
X98690000Y-56730000D02*
X103770000Y-56730000D01*
D32*
X108587500Y-56992500D02*
X106310000Y-59270000D01*
X108587500Y-55500000D02*
X108587500Y-56992500D01*
D33*
X103770000Y-56730000D02*
X106310000Y-59270000D01*
%TO.N,Net-(J3-Pin_1)*%
D32*
X115337500Y-48575000D02*
X120850000Y-48575000D01*
X121000000Y-59770000D02*
X128190000Y-59770000D01*
X133500000Y-52037500D02*
X133500000Y-58080000D01*
X113912500Y-50000000D02*
X115337500Y-48575000D01*
X133500000Y-58080000D02*
X130000000Y-61580000D01*
X125037500Y-52037500D02*
X133500000Y-52037500D01*
X120850000Y-48575000D02*
X124312500Y-52037500D01*
X124312500Y-52037500D02*
X125037500Y-52037500D01*
X128190000Y-59770000D02*
X130000000Y-61580000D01*
%TO.N,GND*%
D33*
X117425000Y-50000000D02*
X116000000Y-50000000D01*
X73945000Y-64445000D02*
X74500000Y-65000000D01*
X102000000Y-50000000D02*
X101000000Y-49000000D01*
X125037500Y-49962500D02*
X125037500Y-48537500D01*
X79000000Y-65000000D02*
X78000000Y-66000000D01*
X108087500Y-50000000D02*
X106500000Y-50000000D01*
X79000000Y-64412500D02*
X79000000Y-65000000D01*
X95688489Y-62609999D02*
X97890001Y-62609999D01*
X73945000Y-62810000D02*
X73945000Y-64445000D01*
X125037500Y-48537500D02*
X125000000Y-48500000D01*
X71500000Y-52500000D02*
X72000000Y-53000000D01*
X97890001Y-62609999D02*
X98690000Y-61810000D01*
X87962500Y-50500000D02*
X86500000Y-50500000D01*
X130000000Y-50000000D02*
X130000000Y-48500000D01*
X71500000Y-51537500D02*
X71500000Y-52500000D01*
X94175000Y-61096510D02*
X95688489Y-62609999D01*
X102462500Y-50000000D02*
X102000000Y-50000000D01*
X133500000Y-49962500D02*
X133500000Y-48500000D01*
X94175000Y-61000000D02*
X94175000Y-61096510D01*
%TO.N,+5V*%
X92400000Y-42100000D02*
X102600000Y-42100000D01*
X89175000Y-48600430D02*
X88700430Y-49075000D01*
D32*
X73945000Y-55190000D02*
X72395000Y-55190000D01*
D33*
X89175000Y-45500000D02*
X89175000Y-45325000D01*
D32*
X71500000Y-49462500D02*
X72225000Y-49462500D01*
X80060000Y-49075000D02*
X73945000Y-55190000D01*
D33*
X104000000Y-43500000D02*
X104000000Y-49462500D01*
D32*
X119500000Y-50000000D02*
X119500000Y-55730000D01*
X72225000Y-49462500D02*
X73945000Y-51182500D01*
X108317621Y-68000000D02*
X111817621Y-64500000D01*
X111817621Y-64500000D02*
X113730000Y-64500000D01*
D33*
X102600000Y-42100000D02*
X104000000Y-43500000D01*
D32*
X90037500Y-50500000D02*
X90037500Y-50412070D01*
X90037500Y-50500000D02*
X90037500Y-51225000D01*
X89000000Y-52262500D02*
X89000000Y-55420000D01*
X90537500Y-51000000D02*
X90037500Y-50500000D01*
D33*
X89175000Y-45325000D02*
X92400000Y-42100000D01*
D32*
X119500000Y-55730000D02*
X121000000Y-57230000D01*
D33*
X89175000Y-45500000D02*
X89175000Y-48600430D01*
D32*
X113730000Y-64500000D02*
X121000000Y-57230000D01*
X90037500Y-51225000D02*
X89000000Y-52262500D01*
D33*
X104000000Y-49462500D02*
X104537500Y-50000000D01*
D32*
X90037500Y-50412070D02*
X88700430Y-49075000D01*
X73945000Y-51182500D02*
X73945000Y-55190000D01*
X72395000Y-55190000D02*
X70810000Y-56775000D01*
X70810000Y-56775000D02*
X70810000Y-68305000D01*
D33*
X106310000Y-56730000D02*
X104537500Y-54957500D01*
X104537500Y-54957500D02*
X104537500Y-50000000D01*
D32*
X89000000Y-55420000D02*
X90810000Y-57230000D01*
X88700430Y-49075000D02*
X80060000Y-49075000D01*
%TO.N,Net-(U4--)*%
X112087500Y-50000000D02*
X111880000Y-50207500D01*
X111880000Y-50207500D02*
X111880000Y-55730000D01*
X111880000Y-55730000D02*
X113380000Y-57230000D01*
X109912500Y-50000000D02*
X112087500Y-50000000D01*
%TO.N,Net-(R3-Pad1)*%
X107190000Y-63810000D02*
X94422070Y-63810000D01*
X92310000Y-61697930D02*
X92310000Y-61270000D01*
X94422070Y-63810000D02*
X92310000Y-61697930D01*
X108587500Y-60000000D02*
X108587500Y-62412500D01*
X108587500Y-62412500D02*
X107190000Y-63810000D01*
X84912500Y-53872500D02*
X90810000Y-59770000D01*
X92310000Y-61270000D02*
X90810000Y-59770000D01*
X84912500Y-50500000D02*
X84912500Y-53872500D01*
%TO.N,Net-(U2-+)*%
X79912500Y-53675000D02*
X83087500Y-50500000D01*
X79912500Y-56000000D02*
X79912500Y-56492500D01*
X79912500Y-56000000D02*
X79912500Y-53675000D01*
X79912500Y-56492500D02*
X83190000Y-59770000D01*
%TO.N,Net-(J1-Pin_1)*%
X58000000Y-57730000D02*
X65055000Y-57730000D01*
X49700000Y-55300000D02*
X52130000Y-57730000D01*
X52130000Y-57730000D02*
X58000000Y-57730000D01*
X58000000Y-55412500D02*
X58000000Y-57730000D01*
%TO.N,Net-(J1-Pin_2)*%
X49700000Y-60380000D02*
X51080000Y-59000000D01*
X61000000Y-59000000D02*
X62270000Y-60270000D01*
X58000000Y-61087500D02*
X58000000Y-59000000D01*
X51080000Y-59000000D02*
X58000000Y-59000000D01*
X62270000Y-60270000D02*
X65055000Y-60270000D01*
X58000000Y-59000000D02*
X61000000Y-59000000D01*
%TO.N,Net-(U2--)*%
X83811321Y-63810000D02*
X80922500Y-63810000D01*
X83190000Y-57230000D02*
X84690000Y-58730000D01*
X84690000Y-58730000D02*
X84690000Y-62931321D01*
X79700000Y-62587500D02*
X79000000Y-62587500D01*
X80922500Y-63810000D02*
X79700000Y-62587500D01*
X79912500Y-61675000D02*
X79000000Y-62587500D01*
X84690000Y-62931321D02*
X83811321Y-63810000D01*
X79912500Y-60500000D02*
X79912500Y-61675000D01*
%TO.N,Net-(U1-VOUT-)*%
X73945000Y-60270000D02*
X77857500Y-60270000D01*
X77857500Y-60270000D02*
X78087500Y-60500000D01*
%TO.N,+5VA*%
X67500000Y-56085000D02*
X67500000Y-66535000D01*
X66605000Y-55190000D02*
X67500000Y-56085000D01*
X67500000Y-66535000D02*
X65730000Y-68305000D01*
X67500000Y-49500000D02*
X67000000Y-49500000D01*
X65055000Y-55190000D02*
X66605000Y-55190000D01*
X67000000Y-49500000D02*
X65055000Y-51445000D01*
X65055000Y-51445000D02*
X65055000Y-55190000D01*
%TO.N,GNDA*%
D33*
X58000000Y-62912500D02*
X58000000Y-64500000D01*
X62690000Y-62810000D02*
X62500000Y-63000000D01*
X67500000Y-51575000D02*
X67500000Y-53000000D01*
X58000000Y-53587500D02*
X58000000Y-52000000D01*
X65055000Y-62810000D02*
X62690000Y-62810000D01*
%TO.N,Net-(U1-VOUT+)*%
D32*
X73945000Y-57730000D02*
X76357500Y-57730000D01*
X76357500Y-57730000D02*
X78087500Y-56000000D01*
%TD*%
M02*
