%TF.GenerationSoftware,KiCad,Pcbnew,10.0.3*%
%TF.CreationDate,2026-06-10T12:44:38+02:00*%
%TF.ProjectId,SPW_PCB_2,5350575f-5043-4425-9f32-2e6b69636164,rev?*%
%TF.SameCoordinates,Original*%
%TF.FileFunction,Paste,Top*%
%TF.FilePolarity,Positive*%
%FSLAX46Y46*%
G04 Gerber Fmt 4.6, Leading zero omitted, Abs format (unit mm)*
G04 Created by KiCad (PCBNEW 10.0.3) date 2026-06-10 12:44:38*
%MOMM*%
%LPD*%
G01*
G04 APERTURE LIST*
G04 Aperture macros list*
%AMRoundRect*
0 Rectangle with rounded corners*
0 $1 Rounding radius*
0 $2 $3 $4 $5 $6 $7 $8 $9 X,Y pos of 4 corners*
0 Add a 4 corners polygon primitive as box body*
4,1,4,$2,$3,$4,$5,$6,$7,$8,$9,$2,$3,0*
0 Add four circle primitives for the rounded corners*
1,1,$1+$1,$2,$3*
1,1,$1+$1,$4,$5*
1,1,$1+$1,$6,$7*
1,1,$1+$1,$8,$9*
0 Add four rect primitives between the rounded corners*
20,1,$1+$1,$2,$3,$4,$5,0*
20,1,$1+$1,$4,$5,$6,$7,0*
20,1,$1+$1,$6,$7,$8,$9,0*
20,1,$1+$1,$8,$9,$2,$3,0*%
G04 Aperture macros list end*
%ADD10RoundRect,0.250000X-0.475000X0.337500X-0.475000X-0.337500X0.475000X-0.337500X0.475000X0.337500X0*%
%ADD11RoundRect,0.250000X0.475000X-0.337500X0.475000X0.337500X-0.475000X0.337500X-0.475000X-0.337500X0*%
%ADD12RoundRect,0.250000X0.262500X0.450000X-0.262500X0.450000X-0.262500X-0.450000X0.262500X-0.450000X0*%
%ADD13RoundRect,0.250000X-0.262500X-0.450000X0.262500X-0.450000X0.262500X0.450000X-0.262500X0.450000X0*%
%ADD14RoundRect,0.250000X0.337500X0.475000X-0.337500X0.475000X-0.337500X-0.475000X0.337500X-0.475000X0*%
%ADD15RoundRect,0.250000X0.450000X-0.262500X0.450000X0.262500X-0.450000X0.262500X-0.450000X-0.262500X0*%
%ADD16RoundRect,0.250000X-1.300000X-0.550000X1.300000X-0.550000X1.300000X0.550000X-1.300000X0.550000X0*%
%ADD17RoundRect,0.250000X-0.450000X0.262500X-0.450000X-0.262500X0.450000X-0.262500X0.450000X0.262500X0*%
G04 APERTURE END LIST*
D10*
%TO.C,C13*%
X93000000Y-67962500D03*
X93000000Y-70037500D03*
%TD*%
D11*
%TO.C,C12*%
X93000000Y-74637500D03*
X93000000Y-72562500D03*
%TD*%
D12*
%TO.C,R8*%
X110412500Y-55500000D03*
X108587500Y-55500000D03*
%TD*%
%TO.C,R9*%
X113912500Y-50000000D03*
X112087500Y-50000000D03*
%TD*%
%TO.C,R3*%
X84912500Y-50500000D03*
X83087500Y-50500000D03*
%TD*%
D13*
%TO.C,R10*%
X108087500Y-50000000D03*
X109912500Y-50000000D03*
%TD*%
D11*
%TO.C,C10*%
X133500000Y-52037500D03*
X133500000Y-49962500D03*
%TD*%
D12*
%TO.C,R2*%
X79912500Y-60500000D03*
X78087500Y-60500000D03*
%TD*%
D11*
%TO.C,C9*%
X130000000Y-52075000D03*
X130000000Y-50000000D03*
%TD*%
D13*
%TO.C,R6*%
X94175000Y-61000000D03*
X96000000Y-61000000D03*
%TD*%
D10*
%TO.C,C1*%
X67500000Y-49500000D03*
X67500000Y-51575000D03*
%TD*%
D11*
%TO.C,C8*%
X125037500Y-52037500D03*
X125037500Y-49962500D03*
%TD*%
D14*
%TO.C,C4*%
X104537500Y-50000000D03*
X102462500Y-50000000D03*
%TD*%
%TO.C,C3*%
X90037500Y-50500000D03*
X87962500Y-50500000D03*
%TD*%
D12*
%TO.C,R5*%
X91000000Y-45500000D03*
X89175000Y-45500000D03*
%TD*%
D15*
%TO.C,R11*%
X58000000Y-62912500D03*
X58000000Y-61087500D03*
%TD*%
%TO.C,R4*%
X79000000Y-64412500D03*
X79000000Y-62587500D03*
%TD*%
D14*
%TO.C,C5*%
X119500000Y-50000000D03*
X117425000Y-50000000D03*
%TD*%
D12*
%TO.C,R7*%
X110412500Y-60000000D03*
X108587500Y-60000000D03*
%TD*%
D16*
%TO.C,U1*%
X65055000Y-55190000D03*
X65055000Y-57730000D03*
X65055000Y-60270000D03*
X65055000Y-62810000D03*
X73945000Y-62810000D03*
X73945000Y-60270000D03*
X73945000Y-57730000D03*
X73945000Y-55190000D03*
%TD*%
D10*
%TO.C,C2*%
X71500000Y-49462500D03*
X71500000Y-51537500D03*
%TD*%
D12*
%TO.C,R1*%
X79912500Y-56000000D03*
X78087500Y-56000000D03*
%TD*%
D17*
%TO.C,R12*%
X58000000Y-53587500D03*
X58000000Y-55412500D03*
%TD*%
M02*
